<?xml version="1.0" encoding="UTF-8"?>
<svg width="1440px" height="474px" viewBox="0 0 1440 474" version="1.1" xmlns="http://www.w3.org/2000/svg" xmlns:xlink="http://www.w3.org/1999/xlink">
    <!-- Generator: Sketch 52.6 (67491) - http://www.bohemiancoding.com/sketch -->
    <title>百应SHOW</title>
    <desc>Created with Sketch.</desc>
    <defs>
        <linearGradient x1="28.2136112%" y1="25.3859961%" x2="108.062345%" y2="112.456699%" id="linearGradient-1">
            <stop stop-color="#427AE1" offset="0%"></stop>
            <stop stop-color="#1E34A9" offset="100%"></stop>
        </linearGradient>
        <linearGradient x1="50.0456568%" y1="-10.1157531%" x2="51.8018421%" y2="70.0353764%" id="linearGradient-2">
            <stop stop-color="#2B5BD6" offset="0%"></stop>
            <stop stop-color="#192B4E" offset="100%"></stop>
        </linearGradient>
        <linearGradient x1="54.8938582%" y1="-8.11682611%" x2="51.8432537%" y2="71.9253749%" id="linearGradient-3">
            <stop stop-color="#1243BE" offset="0%"></stop>
            <stop stop-color="#2290FF" offset="100%"></stop>
        </linearGradient>
        <linearGradient x1="111.673329%" y1="28.9969808%" x2="24.6026264%" y2="108.845714%" id="linearGradient-4">
            <stop stop-color="#427AE1" offset="0%"></stop>
            <stop stop-color="#1E34A9" offset="100%"></stop>
        </linearGradient>
        <linearGradient x1="54.8938582%" y1="-8.11682611%" x2="51.8432537%" y2="71.9253749%" id="linearGradient-5">
            <stop stop-color="#427AE1" offset="0%"></stop>
            <stop stop-color="#2290FF" offset="100%"></stop>
        </linearGradient>
        <linearGradient x1="50%" y1="100%" x2="50%" y2="3.061617e-15%" id="linearGradient-6">
            <stop stop-color="#99E2FF" offset="0%"></stop>
            <stop stop-color="#6FFFED" stop-opacity="0" offset="100%"></stop>
        </linearGradient>
        <filter x="-91.7%" y="-71.3%" width="283.3%" height="242.6%" filterUnits="objectBoundingBox" id="filter-7">
            <feOffset dx="-20" dy="2" in="SourceAlpha" result="shadowOffsetOuter1"></feOffset>
            <feGaussianBlur stdDeviation="10" in="shadowOffsetOuter1" result="shadowBlurOuter1"></feGaussianBlur>
            <feColorMatrix values="0 0 0 0 0.192156863   0 0 0 0 0.325490196   0 0 0 0 0.831372549  0 0 0 0.1 0" type="matrix" in="shadowBlurOuter1" result="shadowMatrixOuter1"></feColorMatrix>
            <feMerge>
                <feMergeNode in="shadowMatrixOuter1"></feMergeNode>
                <feMergeNode in="SourceGraphic"></feMergeNode>
            </feMerge>
        </filter>
        <filter x="-91.7%" y="-71.3%" width="283.3%" height="242.6%" filterUnits="objectBoundingBox" id="filter-8">
            <feOffset dx="-20" dy="2" in="SourceAlpha" result="shadowOffsetOuter1"></feOffset>
            <feGaussianBlur stdDeviation="10" in="shadowOffsetOuter1" result="shadowBlurOuter1"></feGaussianBlur>
            <feColorMatrix values="0 0 0 0 0.192156863   0 0 0 0 0.325490196   0 0 0 0 0.831372549  0 0 0 0.1 0" type="matrix" in="shadowBlurOuter1" result="shadowMatrixOuter1"></feColorMatrix>
            <feMerge>
                <feMergeNode in="shadowMatrixOuter1"></feMergeNode>
                <feMergeNode in="SourceGraphic"></feMergeNode>
            </feMerge>
        </filter>
        <filter x="-91.7%" y="-71.3%" width="283.3%" height="242.6%" filterUnits="objectBoundingBox" id="filter-9">
            <feOffset dx="-20" dy="2" in="SourceAlpha" result="shadowOffsetOuter1"></feOffset>
            <feGaussianBlur stdDeviation="10" in="shadowOffsetOuter1" result="shadowBlurOuter1"></feGaussianBlur>
            <feColorMatrix values="0 0 0 0 0.192156863   0 0 0 0 0.325490196   0 0 0 0 0.831372549  0 0 0 0.1 0" type="matrix" in="shadowBlurOuter1" result="shadowMatrixOuter1"></feColorMatrix>
            <feMerge>
                <feMergeNode in="shadowMatrixOuter1"></feMergeNode>
                <feMergeNode in="SourceGraphic"></feMergeNode>
            </feMerge>
        </filter>
        <filter x="-91.7%" y="-71.3%" width="283.3%" height="242.6%" filterUnits="objectBoundingBox" id="filter-10">
            <feOffset dx="-20" dy="2" in="SourceAlpha" result="shadowOffsetOuter1"></feOffset>
            <feGaussianBlur stdDeviation="10" in="shadowOffsetOuter1" result="shadowBlurOuter1"></feGaussianBlur>
            <feColorMatrix values="0 0 0 0 0.192156863   0 0 0 0 0.325490196   0 0 0 0 0.831372549  0 0 0 0.1 0" type="matrix" in="shadowBlurOuter1" result="shadowMatrixOuter1"></feColorMatrix>
            <feMerge>
                <feMergeNode in="shadowMatrixOuter1"></feMergeNode>
                <feMergeNode in="SourceGraphic"></feMergeNode>
            </feMerge>
        </filter>
    </defs>
    <g id="组件" stroke="none" stroke-width="1" fill="none" fill-rule="evenodd">
        <g id="百应SHOW">
            <g>
                <g id="背景">
                    <g id="分组-2">
                        <polygon id="Fill-1" fill="url(#linearGradient-1)" points="1518.5 -128 1009 111.004791 1518.5 350 2028 111.004791"></polygon>
                        <polygon id="Fill-2" fill="url(#linearGradient-2)" points="1518.28672 349.937426 1009 111 1009 491.625267 1518.28672 757.596426 2027.56752 487.229445 2028 111"></polygon>
                        <g id="分组" transform="translate(463.000000, 141.000000)">
                            <polygon id="Fill-1" fill="url(#linearGradient-1)" points="509.5 0 0 239.004791 509.5 478 1019 239.004791"></polygon>
                            <polygon id="Fill-2" fill="url(#linearGradient-3)" points="509.286721 477.942675 6.25277607e-13 239.005249 6.25277607e-13 619.630516 509.286721 885.601675 1018.56752 615.234694 1019 239.005249"></polygon>
                        </g>
                        <g id="分组-copy" transform="translate(-893.000000, 156.000000)">
                            <polygon id="Fill-1" fill="url(#linearGradient-4)" points="509.5 0 0 239.004791 509.5 478 1019 239.004791"></polygon>
                            <polygon id="Fill-2" fill="url(#linearGradient-5)" points="509.286721 477.942675 6.25277607e-13 239.005249 6.25277607e-13 619.630516 509.286721 885.601675 1018.56752 615.234694 1019 239.005249"></polygon>
                        </g>
                    </g>
                </g>
                <path d="M754,318.936773 L1118,148" id="路径-6" stroke="url(#linearGradient-6)" stroke-width="3" stroke-linecap="round" stroke-linejoin="round"></path>
                <path d="M1086,310 L1270,218" id="路径-6-copy" stroke="url(#linearGradient-6)" stroke-width="3" stroke-linecap="round" stroke-linejoin="round"></path>
                <path d="M1046,415 L1190,345.117111" id="路径-6-copy-2" stroke="url(#linearGradient-6)" stroke-width="3" opacity="0.613188244" stroke-linecap="round" stroke-linejoin="round"></path>
                <path d="M1000.15551,240.637861 C1001.06911,240.101582 1001.80259,238.795799 1001.8,237.740369 C1001.79741,236.673079 1001.05745,236.23167 1000.14514,236.767949 L996.926138,238.657447 C996.013828,239.193727 995.279056,240.500827 995.281647,241.566798 C995.284239,242.622229 996.024195,243.062321 996.937801,242.527359 L1000.15551,240.637861 M1015.21769,217.436836 L1015.20473,212.755257 C1015.20084,211.348017 1014.22244,210.794607 1013.01856,211.500863 L1012.93432,211.549616 C1011.73173,212.255871 1010.75852,213.956946 1010.7624,215.362869 L1010.77536,220.044448 C1010.77925,221.43983 1011.75895,222.006416 1012.96154,221.30016 L1013.04577,221.251407 C1014.24966,220.543834 1015.22158,218.830901 1015.21769,217.436836 M986.22464,229.76864 C986.220752,228.361399 985.241056,227.806672 984.03717,228.514245 L983.954233,228.56168 C982.750347,229.269254 981.77713,230.969011 981.781017,232.376252 L981.795272,237.05783 C981.797864,238.453212 982.77756,239.01848 983.981446,238.312225 L984.064384,238.263472 C985.26827,237.557216 986.241487,235.844283 986.237599,234.450219 L986.22464,229.76864 M1015.01423,207.559798 C1016.81294,207.439893 1017.98054,208.830004 1017.98702,211.1227 L1017.99998,215.802961 C1018.00775,218.738666 1016.13648,222.302885 1013.64577,224.117277 C1011.77709,228.834432 1008.55679,233.397423 1004.06652,237.794392 C1003.55593,240.102899 1001.98272,242.407453 1000.18661,243.461566 L996.945576,245.36424 C994.682944,246.692422 992.849253,245.630404 992.841478,242.999074 C992.834998,240.354569 994.65573,237.136889 996.918362,235.807389 L1000.13607,233.917892 C1001.74557,232.974461 1003.20216,233.224812 1003.87084,234.531912 C1006.92915,231.426232 1009.17623,228.332411 1010.64448,225.247813 C1009.01165,225.197743 1007.99956,223.824761 1007.99308,221.677006 L1007.98012,216.996744 C1007.97234,214.109793 1009.78271,210.606185 1012.22029,208.762805 C1012.04275,204.736093 1010.984,201.895259 1009.07904,200.535454 C1006.7866,198.905531 1003.2527,199.303459 998.426784,202.136388 C993.599576,204.970634 990.08511,208.710099 987.799152,213.039868 C985.917513,216.622534 984.878206,220.682186 984.713627,224.909179 C987.164164,223.860337 988.997855,225.237272 989.00563,228.136082 L989.018589,232.816344 C989.028956,236.018212 986.814272,239.917112 984.073455,241.525952 C981.250997,243.183544 979.022058,241.892256 979.012987,238.690388 L979.000028,234.010127 C978.993548,231.72929 980.128752,228.984643 981.911903,227.002911 C982.022054,221.848299 983.27648,216.739804 985.717945,212.087213 C988.561138,206.700696 992.832407,202.165376 998.416417,198.887085 C1004.00172,195.608793 1008.28336,195.110725 1011.13821,197.153069 C1013.61726,198.916073 1014.89631,202.551444 1015.01423,207.559798" id="Fill-9" fill="#FFFFFF"></path>
                <g id="分组-2" transform="translate(864.000000, 240.000000)" fill="#FFFFFF">
                    <path d="M29.0292981,1.43215096 C32.221456,-0.0571234211 34.6195146,1.91033442 34.6304259,6.00811912 C34.6364877,8.46809289 33.8484502,11.0974505 32.5257597,13.3906463 C36.9133097,12.8082267 39.9830187,16.1659346 39.9999918,22.5569151 C40.0012041,23.0559458 39.867844,23.7960227 39.8690563,24.2872357 L37.2115516,25.9367732 C37.3436994,25.3621713 37.342487,24.7054833 37.3412747,24.2064526 C37.3243016,17.8154721 33.1913482,15.2851389 28.0096989,18.5008249 L28,15.2173853 C30.2622737,13.8141058 31.9862571,10.6036316 31.9789829,7.81922269 C31.9729211,5.36055187 30.4986849,4.13317089 28.6413412,4.96184849 L29.0292981,1.43215096 Z" id="Fill-11"></path>
                    <path d="M15.5148963,24.0922807 C19.4798061,21.775727 22.5819929,16.3294726 22.5677863,11.725126 C22.5561628,7.11293561 19.4333121,5.31276945 15.4684023,7.62932315 C11.5112415,9.94326222 8.40259726,15.3842873 8.41422077,19.9964778 C8.42842729,24.6008243 11.5577356,26.4062197 15.5148963,24.0922807 M21.1820052,21.9326042 C26.9898877,21.1782862 31.1175266,25.3564496 30.994834,33.1793939 L31,34.8226829 L28.1677371,36.4777376 C28.3098023,35.9012138 28.3085108,35.2423295 28.3072193,34.7507808 C28.2839722,26.5199557 22.6000739,23.242529 15.5239368,27.3775512 C8.44779981,31.5138807 2.80910402,41.4076044 2.83235104,49.6384295 L2.83622555,51.2817185 L0.003962635,52.9367732 L8.81303271e-05,51.2947916 C-0.0218673961,43.5555151 4.06056903,34.5782159 9.86199402,28.5489012 C7.30352943,28.0638891 5.60133038,25.5904582 5.58970687,21.6476106 C5.57291735,15.2261028 9.94594162,7.55742109 15.4593618,4.33620872 C20.9805309,1.10845981 25.3832597,3.64725624 25.4000492,10.068764 C25.4116728,13.8560417 23.7210972,18.3008964 21.1820052,21.9326042" id="Fill-13"></path>
                </g>
                <g id="bannerai_渠道合作-副本" transform="translate(1100.000000, 45.000000)">
                    <g id="分组" transform="translate(68.000000, 0.000000)">
                        <path d="M8.59,85.51 L8.54,85.51 L8.23,85.51 L8.16,85.51 L8.07,85.51 L1.07,89.61 C1.11889992,89.5797363 1.17325817,89.5593519 1.23,89.55 C1.28959288,89.5401152 1.35040712,89.5401152 1.41,89.55 C1.47299146,89.5406936 1.53700854,89.5406936 1.6,89.55 L1.81,89.65 L8.81,85.56 L8.59,85.51 Z" id="路径" fill="#3153D4"></path>
                        <polygon id="路径" fill="#3153D4" points="8.8 56.24 8.8 56.24 8.8 56.24 8.8 56.24 8.8 56.24 8.8 56.24 8.4 56.24 8.32 56.24 8.22 56.24 1.22 60.34 1.4 60.27 1.61 60.27 1.83 60.32 1.83 60.32 2.07 60.43 2.07 60.43 9.07 56.34 9.07 56.34"></polygon>
                        <path d="M1.35,36.52 C1.41639745,36.5115271 1.48360255,36.5115271 1.55,36.52 L1.76,36.62 L8.76,32.53 L8.71,32.53 L8.66,32.53 L8.35,32.53 L8.28,32.53 L8.19,32.53 L1.19,36.63 C1.23965979,36.6013138 1.29372293,36.5810401 1.35,36.57 C1.34924203,36.553342 1.34924203,36.536658 1.35,36.52 Z" id="路径" fill="#3153D4"></path>
                        <path d="M146.71,144.19 C146.715678,144.163636 146.715678,144.136364 146.71,144.11 L146.71,144 C146.71,144 146.71,143.95 146.71,143.93 C146.71,143.91 146.71,143.88 146.71,143.85 L146.71,143.8 C146.71,143.8 146.71,143.75 146.71,143.72 C146.714476,143.693521 146.714476,143.666479 146.71,143.64 C146.714335,143.616868 146.714335,143.593132 146.71,143.57 C146.714476,143.543521 146.714476,143.516479 146.71,143.49 L146.71,143.42 C146.711277,143.396684 146.711277,143.373316 146.71,143.35 L146.71,143.28 L146.71,143.21 L146.71,143.14 C146.713303,143.110091 146.713303,143.079909 146.71,143.05 L146.65,142.93 L146.56,142.78 L146.46,142.63 L146.38,142.54 L146.31,142.45 C146.31,142.45 146.31,142.45 146.26,142.4 L146.18,142.31 L146.1,142.22 L146,142.12 L145.95,142.12 L145.9,142.07 L145.78,141.97 L145.66,141.87 L145.53,141.77 L145.39,141.67 L145.24,141.57 L145.08,141.48 L145.22,92.72 C145.22,92.42 145.22,92.12 145.22,91.82 C145.22,91.52 145.22,91.17 145.17,90.82 L145.17,90.38 C145.17,90.31 145.17,90.25 145.17,90.19 C145.17,90.13 145.17,89.96 145.17,89.85 C145.17,89.52 145.1,89.2 145.06,88.85 C145.02,88.5 144.97,88.18 144.91,87.85 L144.91,87.79 C144.91,87.48 144.81,87.16 144.75,86.79 L144.54,85.79 L144.45,85.42 C144.45,85.35 144.45,85.28 144.4,85.2 C144.35,85.12 144.33,84.9 144.29,84.74 C144.21,84.39 144.11,84.04 144.01,83.68 C143.91,83.32 143.87,83.17 143.79,82.91 C143.785576,82.8634382 143.785576,82.8165618 143.79,82.77 C143.786729,82.7233906 143.786729,82.6766094 143.79,82.63 C143.68,82.28 143.57,81.94 143.45,81.63 C143.33,81.32 143.22,80.95 143.1,80.63 L143.03,80.45 L142.3,80 L142.06,79.36 C141.94,79.03 141.81,78.71 141.67,78.36 C141.53,78.01 141.47,77.9 141.37,77.67 C141.357655,77.6283332 141.340894,77.5881048 141.32,77.55 L141.26,77.41 C141.12,77.08 140.97,76.76 140.82,76.41 C140.67,76.06 140.49,75.71 140.31,75.36 L140.23,75.2 C140.23,75.14 140.16,75.07 140.13,75 L139.69,74.16 C139.51,73.82 139.31,73.48 139.12,73.16 C139.02,72.99 138.93,72.81 138.82,72.63 C138.71,72.45 138.75,72.49 138.71,72.43 C138.53,72.13 138.34,71.84 138.16,71.55 C137.98,71.26 137.63,70.69 137.36,70.27 L137.23,70.07 C136.82,69.46 136.4,68.86 135.97,68.28 C135.68,67.89 135.38,67.5 135.08,67.12 C134.78,66.74 134.59,66.5 134.34,66.2 L133.57,65.3 L132.79,64.44 L132.66,64.3 L132.53,64.16 L131.97,63.58 C131.7,63.3 131.42,63.02 131.13,62.75 L130.87,62.5 L130.67,62.32 L130.25,61.93 L129.36,61.16 L128.97,60.83 L128.77,60.67 L128.47,60.43 L127.6,59.76 L126.96,59.3 L126.84,59.22 L126.73,59.14 L125.88,58.58 L125,58 L124.8,57.89 L29.28,2.74 C29.07,2.62 28.86,2.5 28.64,2.39 L28.41,2.26 L28.08,2.09 L27.83,2 L27.43,1.81 L27.13,1.68 L27,1.58 L26.2,1.24 L25.4,0.94 L25.3,0.94 L25,0.81 L24.61,0.68 L24.41,0.62 L24.06,0.52 L23.78,0.45 C23.6880035,0.424203644 23.594489,0.404164816 23.5,0.39 L23.15,0.31 L23,0.27 L22.64,0.21 C22.5,0.21 22.37,0.21 22.23,0.15 L22.09,0.15 L21.76,0.15 L21.33,0.15 L20.91,0.15 L20.4,0 L20,0 L19.37,0 L19.18,0 L19.05,0 C18.73,0 18.42,0.08 18.11,0.14 L18.02,0.14 C17.5896384,0.229474314 17.1654394,0.346379556 16.75,0.49 L16.64,0.49 L16.55,0.49 C16.37,0.55 16.19,0.63 16.02,0.7 L15.8,1 C15.55,1.12 15.3,1.25 15.06,1.39 L8.06,5.49 C8.30147592,5.34422563 8.55198191,5.21396251 8.81,5.1 L9,5 L9.53,4.78 L9.73,4.72 C10.1409551,4.55015166 10.565885,4.41631547 11,4.32 L11.09,4.32 C11.4,4.26 11.71,4.22 12.03,4.18 L12.36,4.18 C12.56,4.18 12.77,4.18 12.99,4.18 L13.35,4.18 L13.85,4.18 L14.27,4.18 L14.7,4.18 L15.17,4.24 L15.58,4.31 L16.09,4.4 L16.44,4.48 L17,4.62 L17.35,4.72 L18,4.9 L18.29,5 C18.59,5.1 18.89,5.21 19.19,5.33 L20.11,5.72 L20.4,5.86 L21.05,6.18 L21.38,6.35 C21.6733333,6.49666667 21.9633333,6.65666667 22.25,6.83 L117.75,62 C118.42,62.39 119.09,62.82 119.75,63.27 L119.87,63.36 C120.48,63.79 121.09,64.24 121.68,64.72 L121.88,64.89 C122.46,65.36 123.02,65.89 123.58,66.37 L123.78,66.56 C124.34,67.09 124.9,67.64 125.44,68.21 L125.58,68.36 C126.15,68.98 126.72,69.61 127.26,70.27 C127.82,70.94 128.37,71.64 128.89,72.35 C129.37,73 129.83,73.67 130.28,74.35 C130.55,74.76 130.81,75.19 131.08,75.62 C131.35,76.05 131.53,76.34 131.75,76.71 C131.85,76.88 131.94,77.06 132.04,77.24 C132.39,77.85 132.73,78.47 133.04,79.1 L133.14,79.3 C133.53,80.06 133.89,80.84 134.23,81.61 L134.29,81.74 C134.62,82.5 134.93,83.27 135.21,84.04 L135.27,84.19 C135.56,84.99 135.83,85.78 136.07,86.57 C136.07,86.57 136.07,86.67 136.07,86.72 C136.3,87.48 136.5,88.25 136.68,89.01 C136.701408,89.0821745 136.71811,89.1556622 136.73,89.23 C136.91,90.02 137.07,90.8 137.19,91.59 C137.32,92.38 137.41,93.17 137.47,93.94 C137.47,94.01 137.47,94.07 137.47,94.13 C137.53,94.91 137.56,95.68 137.56,96.44 L137.42,145.21 C137.6,145.31 137.76,145.42 137.92,145.53 C138.066299,145.635323 138.206523,145.748838 138.34,145.87 C138.46,145.99 138.58,146.11 138.69,146.24 C138.79,146.36 138.89,146.49 138.98,146.62 C139.06,146.74 139.13,146.87 139.2,147 C139.266713,147.132282 139.323535,147.269323 139.37,147.41 C139.411539,147.541147 139.444936,147.674734 139.47,147.81 C139.479543,147.939825 139.479543,148.070175 139.47,148.2 L139.37,182.76 L137.74,183.76 L136.74,367.55 C136.74,368.31 136.74,369.04 136.64,369.74 C136.64,369.81 136.64,369.87 136.64,369.93 C136.57,370.58 136.48,371.2 136.37,371.8 C136.37,371.88 136.37,371.96 136.37,372.04 C136.255052,372.6003 136.111531,373.154357 135.94,373.7 C135.94,373.8 135.88,373.89 135.84,373.99 C135.680918,374.475644 135.49735,374.952921 135.29,375.42 C135.262561,375.46798 135.239148,375.518151 135.22,375.57 C134.987657,376.074702 134.72034,376.562556 134.42,377.03 C134.376701,377.084264 134.336632,377.141029 134.3,377.2 C134.05,377.56 133.79,377.9 133.52,378.2 L133.21,378.53 C132.97252,378.785874 132.722198,379.029521 132.46,379.26 L132.14,379.54 C131.774377,379.835961 131.386571,380.103414 130.98,380.34 L138.03,376.25 C138.436736,376.009944 138.824532,375.739156 139.19,375.44 L139.51,375.16 C139.772124,374.932957 140.022451,374.692642 140.26,374.44 C140.36,374.33 140.47,374.22 140.57,374.1 C140.847023,373.782848 141.10418,373.448878 141.34,373.1 L141.47,372.93 C141.752905,372.490376 142.006779,372.032734 142.23,371.56 C142.224658,371.543761 142.224658,371.526239 142.23,371.51 L142.29,371.35 C142.43,371.05 142.57,370.74 142.69,370.42 C142.75,370.26 142.8,370.09 142.85,369.92 C142.9,369.75 142.92,369.73 142.95,369.63 L143.04,369.37 C143.13,369.04 143.22,368.7 143.3,368.37 C143.3,368.25 143.3,368.12 143.38,367.99 C143.391743,367.909053 143.408441,367.828902 143.43,367.75 C143.43,367.63 143.48,367.51 143.5,367.39 C143.55,367.08 143.6,366.76 143.64,366.39 L143.7,365.85 C143.69457,365.786783 143.69457,365.723217 143.7,365.66 C143.695069,365.583413 143.695069,365.506587 143.7,365.43 C143.7,365.12 143.7,364.81 143.76,364.49 C143.82,364.17 143.76,363.85 143.76,363.49 L143.76,363.43 L144.76,180.43 L145.93,179.75 C146.02948,179.688724 146.114716,179.606897 146.18,179.51 L146.24,179.39 C146.245388,179.363605 146.245388,179.336395 146.24,179.31 L146.24,179.23 C146.235316,179.200183 146.235316,179.169817 146.24,179.14 C146.24,179.14 146.24,179.09 146.24,179.06 L146.24,179 C146.244889,178.973557 146.244889,178.946443 146.24,178.92 L146.24,178.84 L146.34,144.26 L146.71,144.19 Z" id="路径" fill="#6C8BFF"></path>
                        <path d="M117.75,62 C128.75,68.38 137.75,83.83 137.67,96.51 L137.53,145.28 C138.729256,145.86926 139.535971,147.039565 139.66,148.37 L139.56,182.95 C139.56,183.95 138.83,184.4 137.93,183.88 L136.93,367.67 C136.93,380.35 127.93,385.48 116.88,379.1 L21.33,323.93 C10.33,317.56 1.33,302.11 1.41,289.42 L1.91,111.78 C1.09803768,111.435554 0.551616725,110.660489 0.5,109.78 L0.5,90.22 C0.5,89.54 0.99,89.22 1.57,89.61 L2,82.52 C1.1893575,82.071064 0.659320531,81.244056 0.59,80.32 L0.65,61.06 C0.65,60.31 1.19,60 1.85,60.38 L2.1,49.84 C1.2901861,49.4909838 0.742506713,48.7196043 0.68,47.84 L0.68,37.24 C0.68,36.57 1.17,36.24 1.75,36.63 L2.16,18.24 C2.16,5.55 11.16,0.43 22.16,6.81 L117.75,62 Z" id="路径" fill="#FFFFFF"></path>
                    </g>
                    <path d="M187.57,70.23 C193.57,73.67 198.34,81.99 198.33,88.84 L197.55,364.84 C197.55,371.7 192.68,374.45 186.72,371.01 L89.13,314.66 C83.13,311.22 78.35,302.88 78.37,296.02 L78.72,171.47 L186.19,233.52 C190.3,235.9 193.65,233.99 193.67,229.26 L193.77,191.82 C193.696596,189.227752 192.952386,186.698815 191.61,184.48 C190.358577,182.203203 188.544098,180.285433 186.34,178.91 L78.87,116.91 L79.15,20 C79.15,13.15 84.02,10.39 89.99,13.84 L104.59,22.27 L104.59,24.44 C104.59,30.08 108.59,36.95 113.46,39.79 L163.1,68.46 C168,71.3 172,69 172,63.39 L172,61.24 L187.57,70.23 Z" id="路径" fill="#3153D4" opacity="0.11"></path>
                    <path d="M173.42,351.9 C180.87,356.2 186.92,352.74 186.95,344.19 C186.98,335.64 180.95,325.19 173.51,320.92 C166.07,316.65 160.01,320.08 159.99,328.62 C159.97,337.16 165.99,347.62 173.42,351.9" id="路径" fill="#3153D4" opacity="0.11"></path>
                    <polyline id="路径" fill="#3153D4" opacity="0.11" points="193.88 153.05 193.9 148.16 81.81 83.45 81.8 88.34 193.88 153.05"></polyline>
                    <polyline id="路径" fill="#3153D4" opacity="0.11" points="193.57 263.1 193.59 258.2 81.5 193.49 81.49 198.39 193.57 263.1"></polyline>
                    <polyline id="路径" fill="#3153D4" opacity="0.11" points="193.41 318.53 193.43 313.64 81.34 248.93 81.33 253.81 193.41 318.53"></polyline>
                    <polyline id="路径" fill="#3153D4" opacity="0.11" points="81.86 67.96 81.83 77.74 118.72 99.04 118.75 89.26 81.86 67.96"></polyline>
                    <polyline id="路径" fill="#3153D4" opacity="0.11" points="81.39 233.44 81.36 243.22 118.25 264.52 118.28 254.74 81.39 233.44"></polyline>
                    <polyline id="路径" fill="#3153D4" opacity="0.11" points="81.55 178.01 81.52 187.79 118.41 209.09 118.44 199.31 81.55 178.01"></polyline>
                    <polyline id="路径" fill="#3153D4" opacity="0.11" points="126.7 290.63 126.72 285.74 82.02 259.93 82.01 264.82 126.7 290.63"></polyline>
                    <polyline id="路径" fill="#3153D4" opacity="0.11" points="82.17 209.39 126.86 235.19 126.87 230.31 82.18 204.5 82.17 209.39"></polyline>
                    <polyline id="路径" fill="#3153D4" opacity="0.11" points="127.17 125.15 127.19 120.26 82.49 94.46 82.48 99.34 127.17 125.15"></polyline>
                    <path d="M194.05,108.24 L194.73,107.86 L192.49,104 L192.14,103.8 L192,103.59 C192.485994,103.122306 192.738838,102.462713 192.69,101.79 C192.59575,99.760518 191.531583,97.9000873 189.83,96.79 C188.22,95.86 186.93,96.62 186.93,98.46 C187.034564,100.488984 188.100713,102.346387 189.8,103.46 C190.362124,103.834059 191.058426,103.947071 191.71,103.77 L191.84,103.97 L191.84,104.38 L194.05,108.23" id="路径" fill="#3153D4" opacity="0.11"></path>
                    <polyline id="路径" fill="#3153D4" opacity="0.11" points="82.66 36.58 82.65 38.21 94.71 45.17 94.72 43.54 82.66 36.58"></polyline>
                    <polyline id="路径" fill="#3153D4" opacity="0.11" points="82.64 42.29 82.64 43.92 94.7 50.88 94.7 49.25 82.64 42.29"></polyline>
                    <polyline id="路径" fill="#3153D4" opacity="0.11" points="94.72 46.45 82.66 39.49 82.66 41.11 94.72 48.08 94.72 46.45"></polyline>
                    <path d="M142.67,45.92 C143.722939,46.600426 144.382233,47.7476731 144.44,49 C144.44,50.13 143.64,50.58 142.66,50 L127.05,41 C126.008869,40.319082 125.355048,39.182325 125.29,37.94 C125.29,36.82 126.09,36.36 127.06,36.94 L142.67,45.92 Z" id="路径" fill="#3153D4" opacity="0.2"></path>
                    <path d="M149.41,49 C150.665999,49.8170204 151.457178,51.1839396 151.54,52.68 C151.54,54.03 150.54,54.58 149.4,53.89 C148.144492,53.0785597 147.35566,51.7129877 147.28,50.22 C147.28,48.86 148.24,48.31 149.41,49 Z" id="路径" fill="#3153D4" opacity="0.2"></path>
                    <path d="M192.49,104 L194.73,107.87 L194.05,108.25 L191.84,104.4 L191.84,104 L191.71,103.8 C191.066255,103.977926 190.377007,103.868522 189.82,103.5 C188.114303,102.389694 187.040685,100.532223 186.93,98.5 C186.93,96.66 188.22,95.9 189.81,96.81 C191.515528,97.9190865 192.586384,99.7782123 192.69,101.81 C192.738838,102.482713 192.485994,103.142306 192,103.61 L192.14,103.82 L192.49,104 Z M191.24,102.6 C191.656034,102.304213 191.881293,101.807881 191.83,101.3 C191.771002,100.234184 191.335048,99.2240468 190.6,98.45 C190.376131,98.2056187 190.116516,97.9965783 189.83,97.83 C189.419391,97.52326 188.872605,97.4693516 188.41,97.69 C187.83,98.02 187.66,98.92 187.97,99.97 C188.262749,100.992223 188.916562,101.87345 189.81,102.45 C190.223045,102.750399 190.766244,102.803954 191.23,102.59 L191.24,102.6 Z" id="形状" fill="#FFFFFF" fill-rule="nonzero"></path>
                    <path d="M190.6,98.44 C191.335048,99.2140468 191.771002,100.224184 191.83,101.29 C191.92109,101.799228 191.683822,102.311028 191.236332,102.570572 C190.788842,102.830116 190.22678,102.781928 189.83,102.45 C188.946083,101.879052 188.296654,101.009598 188,100 C187.69,99 187.86,98.05 188.44,97.72 C188.902605,97.4993516 189.449391,97.55326 189.86,97.86 C190.13324,98.0167932 190.382467,98.2121329 190.6,98.44 Z" id="路径" fill="#3153D4" opacity="0.2"></path>
                    <polygon id="路径" fill="#FFFFFF" points="94.7 49.25 94.7 50.88 82.64 43.92 82.64 42.29"></polygon>
                    <polygon id="路径" fill="#FFFFFF" points="94.72 46.45 94.72 48.08 82.66 41.11 82.66 39.49"></polygon>
                    <polygon id="路径" fill="#FFFFFF" points="94.72 43.54 94.71 45.17 82.65 38.21 82.66 36.58"></polygon>
                    <g id="分组" opacity="0.57" transform="translate(78.000000, 83.000000)">
                        <polygon id="路径" fill="#FFFFFF" points="48.72 202.74 48.7 207.63 4.01 181.82 4.02 176.93"></polygon>
                        <polygon id="路径" fill="#FFFFFF" points="115.43 230.64 115.41 235.53 3.33 170.81 3.34 165.93"></polygon>
                        <polygon id="路径" fill="#FFFFFF" points="49.19 37.26 49.17 42.15 4.48 16.34 4.49 11.46"></polygon>
                        <path d="M108.34,95.91 C110.544098,97.2854328 112.358577,99.2032029 113.61,101.48 C114.952386,103.698815 115.696596,106.227752 115.77,108.82 L115.67,146.26 C115.67,150.99 112.3,152.9 108.19,150.52 L0.72,88.47 L0.87,33.86 L108.34,95.91 Z" id="路径" fill="#3153D4" opacity="0.67"></path>
                        <polygon id="路径" fill="#3153D4" points="3.36 160.22 40.25 181.52 40.28 171.74 3.39 150.44"></polygon>
                        <polygon id="路径" fill="#3153D4" points="40.44 116.31 40.41 126.09 3.52 104.79 3.55 95.01"></polygon>
                        <polygon id="路径" fill="#FFFFFF" points="115.59 175.2 115.57 180.1 3.49 115.39 3.5 110.49"></polygon>
                        <polygon id="路径" fill="#FFFFFF" points="115.9 65.16 115.88 70.05 3.8 5.34 3.81 0.45"></polygon>
                        <polygon id="路径" fill="#FFFFFF" opacity="0.36" points="48.87 147.31 48.86 152.19 4.17 126.39 4.18 121.5"></polygon>
                        <polygon id="路径" fill="#FFFFFF" points="48.87 147.31 48.86 152.19 4.17 126.39 4.18 121.5"></polygon>
                    </g>
                    <path d="M173.42,351.9 C180.87,356.2 186.92,352.74 186.95,344.19 C186.98,335.64 180.95,325.19 173.51,320.92 C166.07,316.65 160.01,320.08 159.99,328.62 C159.97,337.16 165.99,347.62 173.42,351.9" id="路径" fill="#3153D4"></path>
                    <path d="M178.43,340.91 C178.640726,341.043984 178.774563,341.270763 178.79,341.52 C178.79,341.75 178.63,341.84 178.43,341.72 L169.21,336.4 C168.997733,336.262817 168.863916,336.032354 168.85,335.78 C168.85,335.56 169.01,335.47 169.21,335.58 L178.43,340.91 Z" id="路径" fill="#FFFFFF"></path>
                    <path d="M178.44,337.64 L178.44,335.2 L179.15,335.61 L179.15,338.05 C179.15,338.28 178.99,338.37 178.8,338.26 C178.586503,338.123993 178.452285,337.892839 178.44,337.64 Z" id="路径" fill="#FFFFFF"></path>
                    <path d="M177.73,338.86 C177.936109,339.001567 178.065283,339.230389 178.08,339.48 C178.08,339.71 177.92,339.8 177.72,339.68 L168.5,334.36 C168.291541,334.220599 168.161649,333.990504 168.15,333.74 C168.15,333.52 168.31,333.43 168.51,333.54 L177.73,338.86 Z" id="路径" fill="#FFFFFF"></path>
                    <path d="M177.73,336.42 C177.943497,336.556007 178.077715,336.787161 178.09,337.04 C178.09,337.26 177.93,337.35 177.73,337.23 L168.51,331.91 C168.297993,331.77864 168.166417,331.549322 168.16,331.3 C168.16,331.07 168.32,330.98 168.51,331.1 L177.73,336.42 Z" id="路径" fill="#FFFFFF"></path>
                    <path d="M180.58,335.61 C180.783457,335.749438 180.912294,335.973983 180.93,336.22 C180.93,336.45 180.77,336.54 180.57,336.43 L179.16,335.61 L178.45,335.2 L176.32,334 C176.109274,333.866016 175.975437,333.639237 175.96,333.39 C175.96,333.17 176.12,333.07 176.32,333.19 L178.45,334.42 L179.16,334.82 L180.58,335.61 Z" id="路径" fill="#FFFFFF"></path>
                    <path d="M176.07,331 C176.282267,331.137183 176.416084,331.367646 176.43,331.62 C176.43,331.84 176.27,331.93 176.07,331.82 L166.88,326.51 C166.81,326.51 166.75,326.51 166.75,326.6 L166.75,338.5 C166.748767,338.597134 166.797968,338.687967 166.88,338.74 L180.08,346.36 C180.16,346.41 180.22,346.36 180.22,346.28 L180.22,338.81 C180.22,338.58 180.39,338.5 180.58,338.61 C180.786915,338.746217 180.91682,338.972624 180.93,339.22 L180.93,346.69 C180.93,347.23 180.55,347.45 180.08,347.18 L166.88,339.56 C166.377804,339.235572 166.064546,338.687371 166.04,338.09 L166.04,326.19 C166.04,325.65 166.42,325.43 166.89,325.7 L176.07,331 Z" id="路径" fill="#FFFFFF"></path>
                    <path d="M178.81,332.55 C179.018459,332.689401 179.148351,332.919496 179.16,333.17 L179.16,334.79 L178.45,334.39 L178.45,332.76 C178.45,332.53 178.61,332.44 178.81,332.55 Z" id="路径" fill="#FFFFFF"></path>
                    <g id="分组" transform="translate(0.000000, 170.000000)">
                        <polygon id="路径" fill="#BBBBBB" points="19.87 47.03 26.91 42.93 26.9 47.82 19.85 51.91"></polygon>
                        <polygon id="路径" fill="#BBBBBB" points="19.19 36.01 26.24 31.92 26.22 36.81 19.18 40.91"></polygon>
                        <polygon id="路径" fill="#BBBBBB" points="19.23 20.53 26.28 16.43 26.25 26.21 19.2 30.31"></polygon>
                        <polygon id="路径" fill="#D1D1D1" points="19.85 51.91 26.9 47.82 71.59 73.62 64.55 77.71"></polygon>
                        <polygon id="路径" fill="#AFB5CB" points="19.87 47.03 26.91 42.93 71.61 68.73 64.56 72.83"></polygon>
                        <polygon id="路径" fill="#9DA2B6" points="64.56 72.83 71.61 68.73 71.59 73.62 64.55 77.71"></polygon>
                        <polygon id="路径" fill="#D1D1D1" points="19.18 40.91 26.22 36.81 138.31 101.53 131.26 105.62"></polygon>
                        <polygon id="路径" fill="#AFB5CB" points="19.19 36.01 26.24 31.92 138.33 96.63 131.28 100.73"></polygon>
                        <polygon id="路径" fill="#D1D1D1" points="19.2 30.31 26.25 26.21 63.14 47.51 56.09 51.61"></polygon>
                        <polygon id="路径" fill="#3153D4" points="56.12 41.83 56.09 51.61 19.2 30.31 19.23 20.53"></polygon>
                        <polygon id="路径" fill="#2A48B7" points="19.23 20.53 26.28 16.43 63.17 37.73 56.12 41.83"></polygon>
                        <polygon id="路径" fill="#2640A4" points="56.12 41.83 63.17 37.73 63.14 47.51 56.09 51.61"></polygon>
                        <polygon id="路径" fill="#9DA2B6" points="131.28 100.73 138.33 96.63 138.31 101.53 131.26 105.62"></polygon>
                        <g opacity="0.2" transform="translate(19.000000, 36.000000)" fill="#3153D4" id="路径">
                            <polygon points="112.28 64.73 112.26 69.62 0.18 4.91 0.19 0.01"></polygon>
                        </g>
                        <path d="M144.81,81.6 C152.26,85.91 158.29,96.34 158.27,104.91 L158.2,128.5 C158.2,137.06 152.11,140.5 144.65,136.21 L13.46,60.47 C6,56.16 0,45.73 0,37.16 L0.07,13.57 C0.07,5 6.16,1.57 13.61,5.86 L144.81,81.6 Z" id="路径" fill="#FFFFFF"></path>
                        <polyline id="路径" fill="#FFFFFF" points="131.26 105.62 131.28 100.73 19.19 36.01 19.18 40.91 131.26 105.62"></polyline>
                        <polyline id="路径" fill="#3153D4" points="19.23 20.53 19.2 30.31 56.09 51.61 56.12 41.83 19.23 20.53"></polyline>
                        <polyline id="路径" fill="#FFFFFF" points="64.55 77.71 64.56 72.83 19.87 47.03 19.85 51.91 64.55 77.71"></polyline>
                        <polygon id="路径" fill="#3153D4" opacity="0.11" points="64.56 72.83 64.55 77.71 19.85 51.91 19.87 47.03"></polygon>
                        <path d="M165.31,100.2 L165.31,99.55 L165.31,99.25 C165.31,99.25 165.31,99.16 165.31,99.12 C165.31,99.08 165.31,98.97 165.31,98.89 C165.31,98.81 165.31,98.45 165.24,98.23 C165.17,98.01 165.18,97.78 165.14,97.55 C165.14,97.34 165.07,97.12 165.03,96.91 L164.88,96.21 L164.82,95.96 L164.82,95.81 C164.82,95.71 164.82,95.6 164.75,95.5 C164.68,95.4 164.63,95.02 164.56,94.78 L164.41,94.26 L164.41,94.16 L164.41,94.07 C164.34,93.84 164.27,93.61 164.19,93.37 L163.95,92.69 C163.930652,92.647746 163.913953,92.6043287 163.9,92.56 C163.9,92.56 163.9,92.49 163.9,92.45 C163.9,92.41 163.8,92.17 163.74,92.03 L163.48,91.37 L163.27,90.9 L163.27,90.82 L163.27,90.73 L162.97,90.07 C162.86,89.84 162.75,89.6 162.63,89.36 L162.57,89.25 C162.57,89.25 162.52,89.16 162.5,89.11 C162.48,89.06 162.31,88.74 162.21,88.55 L161.82,87.85 L161.62,87.51 L161.55,87.37 L161.18,86.78 C161,86.49 160.82,86.19 160.63,85.91 L160.54,85.77 C160.27,85.36 159.98,84.95 159.69,84.55 L159.09,83.77 C158.916667,83.55 158.746667,83.34 158.58,83.14 C158.41,82.93 158.23,82.73 158.06,82.53 C157.89,82.33 157.71,82.13 157.53,81.94 L157.44,81.85 L157.35,81.75 L156.98,81.36 L156.41,80.8 L156.23,80.63 L156.09,80.51 L155.82,80.25 L155.22,79.72 L154.95,79.5 L154.81,79.39 L154.61,79.23 L154.02,78.78 L153.59,78.47 L153.51,78.41 L153.43,78.36 L152.86,77.98 L152.29,77.63 L152.15,77.56 L20.66,1.76 L20.23,1.52 L19.68,1.23 L19.32,1.07 L19.24,1.07 L19.13,1.02 L18.59,0.79 C18.41,0.71 18.23,0.65 18.05,0.58 L17.95,0.58 L17.87,0.58 L17.5,0.45 L16.95,0.3 L16.68,0.24 L16.57,0.24 L16.39,0.24 L15.8,0.14 L15.45,0.14 L15.2,0.14 C14.99,0.14 14.77,0.14 14.57,0.14 L13.87,0.14 C13.6,0.14 13.34,0.2 13.09,0.25 L12.94,0.25 C12.6733333,0.31 12.4133333,0.38 12.16,0.46 L12.11,0.46 C11.763675,0.591392346 11.4291388,0.751969759 11.11,0.94 L4.11,5.03 C4.42936651,4.84519106 4.76391199,4.68795468 5.11,4.56 C5.38015986,4.45900634 5.65763189,4.37877346 5.94,4.32 L6.1,4.32 C6.39335856,4.19550263 6.69389412,4.08864554 7,4 L7.21,4 C7.54290708,3.97616003 7.87709292,3.97616003 8.21,4 L8.4,4 C8.76,4 9.14,4.09 9.52,4.17 L9.63,4.17 C10.02,4.26 10.42,4.37 10.82,4.5 L10.91,4.5 C11.3459555,4.64569107 11.7733069,4.8159639 12.19,5.01 L12.28,5.01 C12.72,5.22 13.16,5.45 13.61,5.71 L144.81,81.45 C145.26,81.71 145.71,82 146.16,82.31 L146.24,82.37 C146.65,82.66 147.06,82.96 147.46,83.29 L147.6,83.4 C147.99,83.72 148.37,84.05 148.75,84.4 L148.88,84.53 C149.26,84.89 149.64,85.26 150,85.65 L150.09,85.74 C150.48,86.16 150.87,86.59 151.24,87.04 C151.954049,87.92818 152.62161,88.8527522 153.24,89.81 C153.43,90.1 153.61,90.4 153.79,90.69 C153.97,90.98 154.09,91.17 154.23,91.41 L154.43,91.76 C154.67,92.18 154.9,92.6 155.11,93.02 C155.137311,93.0645696 155.160731,93.1114095 155.18,93.16 C155.44,93.67 155.69,94.16 155.92,94.72 L155.92,94.8 C156.146667,95.32 156.356667,95.84 156.55,96.36 C156.553982,96.3932144 156.553982,96.4267856 156.55,96.46 C156.75,97 156.93,97.53 157.09,98.07 L157.09,98.16 C157.24,98.68 157.38,99.16 157.5,99.72 C157.496729,99.7666094 157.496729,99.8133906 157.5,99.86 C157.62,100.39 157.72,100.93 157.81,101.46 C157.9,101.99 157.96,102.52 158,103.05 L158,103.18 C158,103.7 158.07,104.18 158.07,104.74 L158,128.33 C158,128.84 158,129.33 157.93,129.81 C157.925042,129.853192 157.925042,129.896808 157.93,129.94 C157.88,130.37 157.82,130.79 157.74,131.2 L157.74,131.36 C157.66,131.75 157.56,132.12 157.45,132.48 C157.43114,132.548149 157.407755,132.614964 157.38,132.68 C157.276318,133.020279 157.152773,133.354185 157.01,133.68 L157.01,133.78 C156.854492,134.125989 156.674016,134.460205 156.47,134.78 C156.440099,134.814202 156.413325,134.851016 156.39,134.89 C156.229498,135.131976 156.052406,135.362529 155.86,135.58 C155.798731,135.661198 155.731904,135.738049 155.66,135.81 C155.502548,135.98591 155.332065,136.149707 155.15,136.3 L154.93,136.49 C154.685401,136.691288 154.424504,136.871909 154.15,137.03 L161.2,132.94 C161.470047,132.774964 161.730469,132.594671 161.98,132.4 L162.2,132.21 L162.71,131.72 C162.78,131.64 162.85,131.57 162.91,131.49 C163.097537,131.271056 163.271208,131.040607 163.43,130.8 L163.52,130.68 C163.706023,130.382493 163.876258,130.075402 164.03,129.76 L164.08,129.65 C164.17,129.45 164.26,129.24 164.34,129.02 C164.42,128.8 164.41,128.8 164.45,128.69 C164.49,128.58 164.45,128.56 164.52,128.49 L164.58,128.31 L164.76,127.62 C164.76,127.54 164.76,127.45 164.76,127.37 L164.76,127.21 C164.76,127.13 164.76,127.05 164.81,126.96 C164.86,126.87 164.88,126.54 164.91,126.32 L164.91,125.95 C164.91,125.95 164.91,125.87 164.91,125.82 C164.91,125.77 164.91,125.72 164.91,125.67 C164.91,125.46 164.91,125.25 164.91,125.04 C164.91,124.83 164.91,124.6 164.91,124.38 L164.97,100.79 L165.31,100.2 Z" id="路径" fill="#C4D1FF"></path>
                    </g>
                    <g id="分组" transform="translate(0.000000, 96.000000)">
                        <polygon id="路径" fill="#BBBBBB" points="19.87 47.24 26.91 43.14 26.9 48.03 19.85 52.12"></polygon>
                        <polygon id="路径" fill="#BBBBBB" points="19.19 36.23 26.24 32.13 26.22 37.02 19.18 41.12"></polygon>
                        <polygon id="路径" fill="#BBBBBB" points="19.23 20.74 26.28 16.64 26.25 26.42 19.2 30.52"></polygon>
                        <polygon id="路径" fill="#D1D1D1" points="19.85 52.12 26.9 48.03 71.59 73.83 64.55 77.93"></polygon>
                        <polygon id="路径" fill="#AFB5CB" points="19.87 47.24 26.91 43.14 71.61 68.94 64.56 73.04"></polygon>
                        <polygon id="路径" fill="#9DA2B6" points="64.56 73.04 71.61 68.94 71.59 73.83 64.55 77.93"></polygon>
                        <polygon id="路径" fill="#D1D1D1" points="19.18 41.12 26.22 37.02 138.31 101.74 131.26 105.83"></polygon>
                        <polygon id="路径" fill="#AFB5CB" points="19.19 36.23 26.24 32.13 138.33 96.84 131.28 100.94"></polygon>
                        <polygon id="路径" fill="#D1D1D1" points="19.2 30.52 26.25 26.42 63.14 47.72 56.09 51.82"></polygon>
                        <polygon id="路径" fill="#3153D4" points="56.12 42.04 56.09 51.82 19.2 30.52 19.23 20.74"></polygon>
                        <polygon id="路径" fill="#2A48B7" points="19.23 20.74 26.28 16.64 63.17 37.94 56.12 42.04"></polygon>
                        <polygon id="路径" fill="#2640A4" points="56.12 42.04 63.17 37.94 63.14 47.72 56.09 51.82"></polygon>
                        <polygon id="路径" fill="#9DA2B6" points="131.28 100.94 138.33 96.84 138.31 101.74 131.26 105.83"></polygon>
                        <g opacity="0.2" transform="translate(19.000000, 36.000000)" fill="#3153D4" id="路径">
                            <polygon points="112.28 64.94 112.26 69.83 0.18 5.12 0.19 0.23"></polygon>
                        </g>
                        <path d="M144.81,81.81 C152.26,86.12 158.29,96.55 158.27,105.12 L158.2,128.71 C158.2,137.27 152.11,140.71 144.65,136.42 L13.46,60.68 C6,56.38 0,45.94 0,37.38 L0.07,13.78 C0.07,5.21 6.16,1.78 13.61,6.07 L144.81,81.81 Z" id="路径" fill="#FFFFFF"></path>
                        <polyline id="路径" fill="#3153D4" opacity="0.11" points="131.26 105.83 131.28 100.94 19.19 36.23 19.18 41.12 131.26 105.83"></polyline>
                        <polyline id="路径" fill="#3153D4" points="19.23 20.74 19.2 30.52 56.09 51.82 56.12 42.04 19.23 20.74"></polyline>
                        <polyline id="路径" fill="#FFFFFF" points="64.55 77.93 64.56 73.04 19.87 47.24 19.85 52.12 64.55 77.93"></polyline>
                        <polygon id="路径" fill="#3153D4" opacity="0.11" points="64.56 73.04 64.55 77.93 19.85 52.12 19.87 47.24"></polygon>
                        <path d="M165.31,100.41 L165.31,99.76 L165.31,99.46 C165.31,99.46 165.31,99.37 165.31,99.33 C165.31,99.29 165.31,99.18 165.31,99.1 C165.31,99.02 165.31,98.66 165.24,98.44 C165.17,98.22 165.18,97.99 165.14,97.76 C165.14,97.55 165.07,97.34 165.03,97.12 L164.88,96.42 L164.82,96.17 L164.82,96.02 C164.82,95.92 164.82,95.81 164.75,95.71 C164.68,95.61 164.63,95.23 164.56,95 L164.41,94.47 L164.41,94.38 L164.41,94.28 C164.34,94.05 164.27,93.82 164.19,93.59 L163.95,92.9 C163.930652,92.857746 163.913953,92.8143287 163.9,92.77 C163.9,92.77 163.9,92.7 163.9,92.66 C163.9,92.62 163.8,92.38 163.74,92.24 L163.48,91.58 L163.27,91.11 L163.27,91.03 L163.27,90.94 L162.97,90.29 C162.86,90.05 162.75,89.81 162.63,89.57 L162.57,89.46 L162.5,89.33 L162.21,88.76 L161.82,88.07 C161.75,87.95 161.69,87.83 161.62,87.72 L161.55,87.58 L161.18,86.99 C161,86.7 160.82,86.4 160.63,86.12 L160.54,85.98 C160.27,85.57 159.98,85.16 159.69,84.76 L159.09,83.98 C158.916667,83.76 158.746667,83.55 158.58,83.35 C158.41,83.14 158.23,82.94 158.06,82.74 C157.89,82.54 157.71,82.34 157.53,82.15 L157.44,82.06 L157.35,81.96 L156.98,81.57 L156.41,81.01 L156.23,80.84 L156.09,80.72 L155.82,80.46 L155.22,79.93 L154.95,79.71 L154.81,79.6 L154.61,79.44 L154.02,78.99 L153.59,78.68 L153.51,78.68 L153.43,78.62 L152.86,78.24 L152.29,77.89 L152.15,77.82 L20.66,2 L20.23,1.76 L19.68,1.47 L19.32,1.31 L19.24,1.31 L19.13,1.31 L18.59,1.08 C18.41,1 18.23,0.94 18.05,0.87 L17.95,0.87 L17.87,0.87 C17.7502932,0.819578906 17.6265134,0.779434126 17.5,0.75 L16.95,0.59 L16.68,0.53 L16.57,0.53 L16.39,0.53 L15.8,0.43 L15.45,0.43 L15.2,0.43 C14.99,0.43 14.77,0.43 14.57,0.43 L13.87,0.43 C13.6,0.43 13.34,0.49 13.09,0.54 L12.94,0.54 C12.6733333,0.6 12.4133333,0.67 12.16,0.75 L12.11,0.75 C11.763675,0.881392346 11.4291388,1.04196976 11.11,1.23 L4.11,5.33 C4.42913877,5.14196976 4.76367504,4.98139235 5.11,4.85 C5.38015986,4.74900634 5.65763189,4.66877346 5.94,4.61 L6.1,4.61 C6.43048203,4.54903608 6.7644771,4.50895667 7.1,4.49 L7.31,4.49 C7.64290708,4.46616003 7.97709292,4.46616003 8.31,4.49 L8.4,4.49 C8.76,4.49 9.14,4.58 9.52,4.66 L9.63,4.66 C10.02,4.75 10.42,4.86 10.82,4.99 L10.91,4.99 C11.3459555,5.13569107 11.7733069,5.3059639 12.19,5.5 L12.28,5.5 C12.72,5.71 13.16,5.94 13.61,6.2 L144.81,81.94 C145.26,82.21 145.71,82.49 146.16,82.8 L146.24,82.86 C146.65,83.15 147.06,83.46 147.46,83.78 L147.6,83.89 C147.99,84.21 148.37,84.54 148.75,84.89 L148.88,85.02 C149.26,85.38 149.64,85.75 150,86.14 L150.09,86.23 C150.48,86.65 150.87,87.08 151.24,87.53 C151.954049,88.41818 152.62161,89.3427522 153.24,90.3 C153.43,90.59 153.61,90.89 153.79,91.18 C153.97,91.47 154.09,91.66 154.23,91.9 L154.43,92.25 C154.67,92.67 154.9,93.09 155.11,93.51 C155.137311,93.5545696 155.160731,93.6014095 155.18,93.65 C155.44,94.16 155.69,94.65 155.92,95.21 L155.92,95.29 C156.146667,95.81 156.356667,96.33 156.55,96.85 C156.552419,96.8832895 156.552419,96.9167105 156.55,96.95 C156.75,97.49 156.93,98.02 157.09,98.56 L157.09,98.66 C157.24,99.17 157.38,99.66 157.5,100.21 C157.495576,100.256562 157.495576,100.303438 157.5,100.35 C157.62,100.89 157.72,101.42 157.81,101.95 C157.9,102.48 157.96,103.01 158,103.54 L158,103.67 C158,104.19 158.07,104.67 158.07,105.23 L158,128.82 C158,129.33 158,129.82 157.93,130.3 C157.925042,130.343192 157.925042,130.386808 157.93,130.43 C157.88,130.86 157.82,131.28 157.74,131.69 L157.74,131.85 C157.66,132.24 157.56,132.61 157.45,132.97 C157.43114,133.038149 157.407755,133.104964 157.38,133.17 C157.276318,133.510279 157.152773,133.844185 157.01,134.17 L157.01,134.27 C156.854492,134.615989 156.674016,134.950205 156.47,135.27 C156.437674,135.305924 156.410727,135.346344 156.39,135.39 C156.22,135.63 156.05,135.86 155.86,136.08 L155.66,136.3 C155.502548,136.47591 155.332065,136.639707 155.15,136.79 L154.93,136.98 C154.683045,137.181168 154.422418,137.364943 154.15,137.53 L161.2,133.43 C161.470047,133.264964 161.730469,133.084671 161.98,132.89 L162.2,132.7 L162.71,132.21 C162.78,132.13 162.85,132.06 162.91,131.98 C163.097537,131.761056 163.271208,131.530607 163.43,131.29 L163.52,131.17 C163.706023,130.872493 163.876258,130.565402 164.03,130.25 C164.04855,130.214219 164.065239,130.177503 164.08,130.14 C164.17,129.94 164.26,129.73 164.34,129.51 C164.42,129.29 164.41,129.29 164.45,129.18 C164.49,129.07 164.45,129.05 164.52,128.98 L164.58,128.8 L164.76,128.12 C164.76,128.03 164.76,127.95 164.76,127.86 L164.76,127.7 C164.76,127.62 164.76,127.54 164.81,127.46 C164.86,127.38 164.88,127.03 164.91,126.81 L164.91,126.44 C164.91,126.44 164.91,126.36 164.91,126.32 C164.91,126.28 164.91,126.21 164.91,126.16 C164.91,125.95 164.91,125.74 164.91,125.53 C164.91,125.32 164.91,125.1 164.91,124.87 L164.97,101.27 L165.31,100.41 Z" id="路径" fill="#C4D1FF"></path>
                    </g>
                    <g id="分组" transform="translate(0.000000, 22.000000)">
                        <polygon id="路径" fill="#BBBBBB" points="19.87 47.45 26.91 43.35 26.9 48.24 19.85 52.33"></polygon>
                        <polygon id="路径" fill="#BBBBBB" points="19.19 36.44 26.24 32.34 26.22 37.23 19.18 41.33"></polygon>
                        <polygon id="路径" fill="#BBBBBB" points="19.23 20.95 26.28 16.85 26.25 26.63 19.2 30.73"></polygon>
                        <polygon id="路径" fill="#D1D1D1" points="19.85 52.33 26.9 48.24 71.59 74.04 64.55 78.14"></polygon>
                        <polygon id="路径" fill="#AFB5CB" points="19.87 47.45 26.91 43.35 71.61 69.16 64.56 73.25"></polygon>
                        <polygon id="路径" fill="#9DA2B6" points="64.56 73.25 71.61 69.16 71.59 74.04 64.55 78.14"></polygon>
                        <polygon id="路径" fill="#D1D1D1" points="19.18 41.33 26.22 37.23 138.31 101.95 131.26 106.04"></polygon>
                        <polygon id="路径" fill="#AFB5CB" points="19.19 36.44 26.24 32.34 138.33 97.06 131.28 101.15"></polygon>
                        <polygon id="路径" fill="#D1D1D1" points="19.2 30.73 26.25 26.63 63.14 47.93 56.09 52.03"></polygon>
                        <polygon id="路径" fill="#3153D4" points="56.12 42.25 56.09 52.03 19.2 30.73 19.23 20.95"></polygon>
                        <polygon id="路径" fill="#2A48B7" points="19.23 20.95 26.28 16.85 63.17 38.15 56.12 42.25"></polygon>
                        <polygon id="路径" fill="#2640A4" points="56.12 42.25 63.17 38.15 63.14 47.93 56.09 52.03"></polygon>
                        <polygon id="路径" fill="#9DA2B6" points="131.28 101.15 138.33 97.06 138.31 101.95 131.26 106.04"></polygon>
                        <g opacity="0.2" transform="translate(19.000000, 36.000000)" fill="#3153D4" id="路径">
                            <polygon points="112.28 65.15 112.26 70.04 0.18 5.33 0.19 0.44"></polygon>
                        </g>
                        <path d="M144.81,82 C152.26,86.31 158.29,96.74 158.27,105.31 L158.2,128.9 C158.2,137.46 152.11,140.9 144.65,136.62 L13.46,60.89 C6,56.59 0,46.15 0,37.59 L0.07,14 C0.07,5.43 6.16,2 13.61,6.29 L144.81,82 Z" id="路径" fill="#FFFFFF"></path>
                        <polyline id="路径" fill="#3153D4" opacity="0.11" points="131.26 106.04 131.28 101.15 19.19 36.44 19.18 41.33 131.26 106.04"></polyline>
                        <polyline id="路径" fill="#3153D4" points="19.23 20.95 19.2 30.73 56.09 52.03 56.12 42.25 19.23 20.95"></polyline>
                        <polyline id="路径" fill="#FFFFFF" points="64.55 78.14 64.56 73.25 19.87 47.45 19.85 52.33 64.55 78.14"></polyline>
                        <polygon id="路径" fill="#3153D4" opacity="0.11" points="64.56 73.25 64.55 78.14 19.85 52.33 19.87 47.45"></polygon>
                        <path d="M165.31,100.62 L165.31,99.97 L165.31,99.67 C165.31,99.67 165.31,99.59 165.31,99.54 C165.31,99.49 165.31,99.39 165.31,99.31 C165.31,99.23 165.31,98.87 165.24,98.65 C165.17,98.43 165.18,98.2 165.14,97.98 C165.14,97.77 165.07,97.56 165.03,97.34 L164.88,96.64 L164.82,96.39 L164.82,96.24 C164.82,96.14 164.82,96.04 164.75,95.93 C164.68,95.82 164.63,95.46 164.56,95.22 L164.41,94.69 L164.41,94.6 L164.41,94.5 C164.34,94.27 164.27,94.04 164.19,93.81 L163.95,93.12 C163.928991,93.0784641 163.912239,93.0349089 163.9,92.99 C163.901668,92.9566875 163.901668,92.9233125 163.9,92.89 C163.85,92.74 163.8,92.6 163.74,92.46 L163.48,91.8 L163.27,91.33 L163.27,91.25 L163.27,91.16 L162.97,90.51 C162.86,90.27 162.75,90.03 162.63,89.79 L162.57,89.68 L162.5,89.55 L162.21,88.98 L161.82,88.29 C161.75,88.17 161.69,88.05 161.62,87.94 C161.55,87.83 161.57,87.85 161.55,87.8 L161.18,87.21 C161,86.92 160.82,86.63 160.63,86.34 L160.54,86.2 C160.27,85.79 159.98,85.38 159.69,84.98 L159.09,84.2 L158.58,83.57 C158.41,83.36 158.23,83.16 158.06,82.96 C157.89,82.76 157.71,82.57 157.53,82.37 L157.44,82.28 L157.35,82.18 L156.98,81.79 L156.41,81.23 L156.23,81.06 L156.09,80.94 L155.82,80.68 L155.22,80.15 L154.95,79.94 L154.81,79.82 L154.61,79.66 L154.02,79.21 L153.59,78.9 L153.51,78.9 L153.43,78.84 L152.86,78.46 L152,78 L151.86,77.93 L20.66,2.18 L20.23,1.94 L19.68,1.66 L19.32,1.49 L19.24,1.49 L19.13,1.44 L18.59,1.21 L18.05,1 L17.95,1 L17.87,1 C17.75,1 17.63,0.91 17.5,0.88 L17,0.63 L16.73,0.57 L16.62,0.57 L16.44,0.57 L15.85,0.47 L15.5,0.47 L15.37,0.47 L15.2,0.47 L14.57,0.47 L13.87,0.47 C13.6077635,0.49378931 13.3472605,0.533866687 13.09,0.59 L12.94,0.59 C12.6756069,0.646755189 12.415083,0.720236269 12.16,0.81 L12.11,0.81 C11.763675,0.941392346 11.4291388,1.10196976 11.11,1.29 L4.11,5.39 C4.42913877,5.20196976 4.76367504,5.04139235 5.11,4.91 C5.38015986,4.80900634 5.65763189,4.72877346 5.94,4.67 L6.1,4.67 C6.42945039,4.60075649 6.76379585,4.55729158 7.1,4.54 L7.31,4.54 C7.64306202,4.52098035 7.97693798,4.52098035 8.31,4.54 L8.4,4.54 C8.76,4.54 9.14,4.63 9.52,4.71 L9.63,4.71 C10.02,4.8 10.42,4.91 10.82,5.04 L10.91,5.04 C11.33,5.18 11.76,5.36 12.19,5.55 L12.28,5.55 C12.72,5.76 13.16,5.99 13.61,6.25 L144.81,82 C145.26,82.27 145.71,82.55 146.16,82.86 L146.24,82.92 C146.65,83.21 147.06,83.52 147.46,83.84 L147.6,83.95 C147.99,84.27 148.37,84.6 148.75,84.95 C148.79079,84.9958044 148.834196,85.0392103 148.88,85.08 C149.26,85.44 149.64,85.81 150,86.2 L150.09,86.29 C150.48,86.71 150.87,87.14 151.24,87.59 C151.954049,88.47818 152.62161,89.4027522 153.24,90.36 C153.43,90.65 153.61,90.95 153.79,91.24 C153.97,91.53 154.09,91.72 154.23,91.96 C154.37,92.2 154.36,92.2 154.43,92.31 C154.67,92.73 154.9,93.15 155.11,93.57 C155.137311,93.6145696 155.160731,93.6614095 155.18,93.71 C155.44,94.23 155.69,94.71 155.92,95.27 L155.92,95.35 C156.146667,95.87 156.356667,96.39 156.55,96.91 C156.552419,96.9432895 156.552419,96.9767105 156.55,97.01 C156.75,97.55 156.93,98.09 157.09,98.62 L157.09,98.72 C157.24,99.23 157.38,99.72 157.5,100.27 C157.495576,100.316562 157.495576,100.363438 157.5,100.41 C157.62,100.95 157.72,101.48 157.81,102.01 C157.9,102.54 157.96,103.07 158,103.6 L158,103.73 C158,104.25 158.07,104.73 158.07,105.29 L158,128.88 C158,129.39 158,129.88 157.93,130.36 C157.925042,130.403192 157.925042,130.446808 157.93,130.49 C157.88,130.93 157.82,131.35 157.74,131.75 L157.74,131.91 C157.66,132.3 157.56,132.67 157.45,133.03 C157.43114,133.098149 157.407755,133.164964 157.38,133.23 C157.276318,133.570279 157.152773,133.904185 157.01,134.23 L157.01,134.34 C156.852672,134.685087 156.672263,135.019178 156.47,135.34 L156.39,135.46 C156.22,135.7 156.05,135.93 155.86,136.15 L155.66,136.37 C155.502548,136.54591 155.332065,136.709707 155.15,136.86 L155,137 C154.753045,137.201168 154.492418,137.384943 154.22,137.55 L161.27,133.45 C161.54229,133.288433 161.802928,133.107992 162.05,132.91 L162.27,132.72 L162.78,132.23 C162.85,132.15 162.92,132.08 162.98,132 C163.167537,131.781056 163.341208,131.550607 163.5,131.31 L163.59,131.19 C163.776014,130.889055 163.946244,130.578635 164.1,130.26 C164.1,130.26 164.1,130.19 164.15,130.16 C164.24,129.95 164.33,129.74 164.41,129.52 C164.49,129.3 164.48,129.3 164.52,129.19 C164.56,129.08 164.52,129.06 164.59,128.99 L164.65,128.81 L164.83,128.13 C164.83,128.04 164.83,127.96 164.83,127.87 L164.83,127.71 C164.83,127.63 164.83,127.55 164.88,127.47 C164.93,127.39 164.95,127.04 164.98,126.82 L164.98,126.45 C164.98,126.45 164.98,126.37 164.98,126.33 C164.98,126.29 164.98,126.22 164.98,126.17 C164.98,125.96 164.98,125.75 164.98,125.54 C164.98,125.33 164.98,125.11 164.98,124.89 L165.04,101.29 L165.31,100.62 Z" id="路径" fill="#C4D1FF"></path>
                    </g>
                </g>
                <g id="分组-3" transform="translate(840.000000, 205.000000)">
                    <g id="分组-copy" filter="url(#filter-7)">
                        <path d="M82.9843259,8.41729554 C82.9026108,3.85241987 79.3917941,1.73769964 75.1259015,3.77988561 L12.4195838,33.8613814 C8.23849705,35.8636457 4.92053506,41.1831811 5.00144899,45.7480568 L6.01623225,102.615943 C6.09714618,107.180021 9.56896007,109.235926 13.750848,107.234459 L76.567291,77.1590465 C80.7547868,75.155188 84.0794678,69.8291012 83.9985539,65.2650226 L82.9843259,8.41729554 Z" id="Fill-1" fill="#4B94F6"></path>
                        <path d="M77.0439799,3.45861949 C77.33188,3.38568963 77.6125625,3.33495581 77.8876315,3.30166174 C78.0199532,3.28660014 78.1482653,3.28105113 78.2773792,3.27391668 C78.376821,3.26916039 78.4770648,3.25885508 78.5741008,3.25885508 C78.7890234,3.25885508 78.9999363,3.26916039 79.2044336,3.2945273 C79.2188687,3.29690544 79.2325019,3.30007631 79.2477389,3.30166174 C79.4337913,3.32702865 79.6150321,3.36349358 79.7914611,3.40788567 C79.8475976,3.42294727 79.9013283,3.44038702 79.9558609,3.45703406 C80.0913905,3.49666985 80.2237123,3.54264737 80.3528262,3.59417391 C80.4057549,3.61636995 80.4586836,3.63698057 80.5100085,3.66076204 C80.6792199,3.73765549 80.8436197,3.82089066 81,3.91839471 L75.7993533,0.66191778 C75.674249,0.583438905 75.5443331,0.512094474 75.4104074,0.44709177 C75.3775275,0.430444736 75.3430436,0.420139429 75.3101637,0.404285111 C75.2580369,0.38129635 75.2051082,0.35989302 75.1521795,0.338489691 C75.0936371,0.314708214 75.0375006,0.286963157 74.9773543,0.265559828 C74.9051788,0.239400203 74.8289936,0.222753169 74.7552142,0.199764408 C74.7006815,0.18391009 74.6469509,0.165677624 74.5916163,0.152201454 C74.5635481,0.14506701 74.5386876,0.134761704 74.5106194,0.127627261 C74.3598527,0.0927477608 74.2042744,0.0665881359 74.0462902,0.0459775224 C74.0318551,0.0435993747 74.018222,0.0396357952 74.0037869,0.0380503634 C73.8097149,0.0142688863 73.6172469,0.00158543181 73.4207691,0 C73.405532,0 73.3886911,0.00237814771 73.374256,0.00237814771 C73.2764181,0.00237814771 73.1761743,0.0126834545 73.0767325,0.0182324658 C72.9652614,0.024574193 72.8553942,0.0229887612 72.7415173,0.0356722157 C72.7230725,0.0372576475 72.7046276,0.0435993747 72.6869847,0.0459775224 C72.4111139,0.0784788745 72.1304313,0.129212692 71.8433331,0.202142556 C71.8353136,0.203727987 71.8272941,0.204520703 71.8184727,0.206898851 C71.6620924,0.247327362 71.5017024,0.302817475 71.3421143,0.355929441 C71.2587115,0.383674498 71.1769126,0.402699679 71.0927078,0.433615599 C70.8368857,0.527156076 70.5778558,0.634965439 70.3156181,0.759421836 L7.43470653,30.6701783 C7.08666016,30.8350632 6.74663329,31.0316568 6.41222008,31.2401411 C6.32801531,31.293253 6.2446125,31.346365 6.16120968,31.4018551 C5.83962767,31.614303 5.52285736,31.840227 5.2165124,32.0891398 C5.2100968,32.0946888 5.2036812,32.0986524 5.1972656,32.102616 L5.1924539,32.1073723 C4.92139474,32.3293327 4.65835509,32.5671475 4.40173104,32.8144748 C4.37767254,32.8366709 4.35281208,32.8564888 4.32955553,32.8786848 C4.24454881,32.9603346 4.16515575,33.0507042 4.08255488,33.1355248 C3.97509356,33.2457123 3.86763224,33.3535217 3.76418067,33.46688 C3.73851827,33.4946251 3.71125196,33.519992 3.68558956,33.5485298 C3.57973214,33.6658517 3.47948837,33.7895154 3.37683875,33.9115937 C3.31508859,33.9853162 3.25013062,34.0566607 3.18918241,34.1319687 C3.17635121,34.147823 3.16271806,34.1620919 3.14988685,34.1787389 C2.98949682,34.3777106 2.83391849,34.5822313 2.68234991,34.7907156 C2.67593431,34.8002282 2.66951871,34.8097408 2.66230116,34.8192534 C2.63343095,34.8604746 2.6053627,34.904074 2.57649249,34.9445025 C2.47063507,35.0951185 2.36477765,35.2449418 2.26373193,35.3995214 C2.23405978,35.4439135 2.20759542,35.4914765 2.17872522,35.5366613 C2.13060821,35.612762 2.0840951,35.6888627 2.03758199,35.7649634 C1.98625718,35.8474059 1.93252652,35.9290556 1.88280561,36.0122908 C1.82747105,36.1082094 1.77614624,36.2057135 1.72161363,36.3016321 C1.68071417,36.3761474 1.63821081,36.44987 1.59811331,36.5243853 C1.5772626,36.5632284 1.55400605,36.6012787 1.53315534,36.6401218 C1.42569402,36.8446425 1.3246483,37.0507486 1.22681038,37.2584402 C1.22199868,37.2687455 1.21638503,37.2782581 1.21237528,37.2877707 C1.10411201,37.518451 1.00467019,37.7483386 0.910842024,37.9798117 C0.898812771,38.0099349 0.88918937,38.0392654 0.877962067,38.0693886 C0.84027041,38.1637218 0.807390454,38.2588477 0.771302697,38.3547663 C0.725591538,38.4776373 0.675870629,38.6013009 0.63336727,38.7257573 C0.617328267,38.774113 0.605299015,38.8240541 0.589260012,38.8732025 C0.545152754,39.0055861 0.507461096,39.1387623 0.468165539,39.2719386 C0.440097283,39.3702354 0.405613427,39.4677394 0.379149072,39.5660362 C0.367119819,39.6120137 0.361506168,39.658784 0.349476916,39.7047615 C0.292538455,39.9298928 0.244421446,40.1558168 0.201918088,40.3809481 C0.186681035,40.4586343 0.16342448,40.5371132 0.150593278,40.6155921 C0.146583527,40.6385808 0.144979627,40.6615696 0.141771826,40.6861438 C0.10808992,40.8882863 0.0864372655,41.0896362 0.0647846113,41.2917787 C0.0543592593,41.3932464 0.0375183061,41.4962994 0.0294988045,41.5977671 C0.00704420021,41.8997918 -0.00418310194,42.1994384 0.00143054914,42.4967069 L1.01589749,99.0324124 C1.05679695,101.262322 1.91167582,102.894524 3.26697158,103.74273 L8.46761832,107 C7.11152061,106.151001 6.25664175,104.518007 6.21654424,102.288889 L5.2020773,45.7523911 C5.19646365,45.4559154 5.206889,45.155476 5.23014555,44.8534513 C5.23816505,44.7519836 5.25500601,44.6497233 5.26543136,44.5482557 C5.28708401,44.3461131 5.30873667,44.1447633 5.34161662,43.9426207 C5.35845758,43.8403604 5.38251608,43.7381 5.40176289,43.6366324 C5.44506819,43.411501 5.49238325,43.1863697 5.55012366,42.9612384 C5.58621142,42.8161714 5.62711088,42.6718971 5.66881229,42.5284155 C5.70810784,42.396032 5.7457995,42.2628557 5.78990676,42.1296794 C5.84604327,41.9560746 5.90859538,41.7824699 5.9727514,41.6096578 C6.0080372,41.5145319 6.04091716,41.419406 6.07780687,41.3250728 C6.18206039,41.0626838 6.29272951,40.8010876 6.41302203,40.5434549 C6.41622983,40.5363205 6.42023958,40.529186 6.42344738,40.5220516 C6.5405321,40.2715534 6.66724023,40.0250187 6.79876005,39.7800695 C6.83885756,39.7055542 6.88055897,39.6318316 6.92226038,39.5596945 C7.0233061,39.3773698 7.12836157,39.1990087 7.23742679,39.0206477 C7.2839399,38.9445469 7.33045301,38.8692389 7.37857002,38.7939309 C7.50688204,38.5925811 7.64080772,38.3944021 7.77874314,38.1986013 C7.8068114,38.1581728 7.83327575,38.1161588 7.86294791,38.076523 C8.03135744,37.8418791 8.20778647,37.6127842 8.38982916,37.3884456 C8.44997542,37.3131376 8.51493338,37.2417932 8.57668355,37.1680706 C8.70419362,37.0174546 8.83170369,36.8676313 8.96482742,36.7225643 C9.06747704,36.6099986 9.17493836,36.5021892 9.28159773,36.3927944 C9.38745515,36.2849851 9.49331257,36.1747976 9.60157584,36.0701591 C9.85900184,35.8236244 10.1212395,35.5858096 10.3931006,35.3638492 C10.4011201,35.3567147 10.4099416,35.3511657 10.418763,35.3440313 C10.7235041,35.0959112 11.0402744,34.8707799 11.3618564,34.6575393 C11.4452592,34.6028419 11.5286621,34.5489372 11.6128668,34.496618 C11.94728,34.287341 12.2873069,34.0915402 12.6353533,33.9258625 L75.5162648,4.01589877 C75.7777006,3.89144237 76.0367305,3.78363301 76.2925526,3.69088525 C76.3783613,3.65917661 76.4617641,3.638566 76.5467708,3.61082094 C76.7135764,3.55612355 76.881184,3.49984072 77.0439799,3.45861949 Z" id="Fill-3" fill="#69A9FF"></path>
                    </g>
                    <g id="分组-2" transform="translate(27.000000, 34.000000)" fill="#FFFFFF">
                        <path d="M29.0292981,1.43215096 C32.221456,-0.0571234211 34.6195146,1.91033442 34.6304259,6.00811912 C34.6364877,8.46809289 33.8484502,11.0974505 32.5257597,13.3906463 C36.9133097,12.8082267 39.9830187,16.1659346 39.9999918,22.5569151 C40.0012041,23.0559458 39.867844,23.7960227 39.8690563,24.2872357 L37.2115516,25.9367732 C37.3436994,25.3621713 37.342487,24.7054833 37.3412747,24.2064526 C37.3243016,17.8154721 33.1913482,15.2851389 28.0096989,18.5008249 L28,15.2173853 C30.2622737,13.8141058 31.9862571,10.6036316 31.9789829,7.81922269 C31.9729211,5.36055187 30.4986849,4.13317089 28.6413412,4.96184849 L29.0292981,1.43215096 Z" id="Fill-11"></path>
                        <path d="M15.5148963,24.0922807 C19.4798061,21.775727 22.5819929,16.3294726 22.5677863,11.725126 C22.5561628,7.11293561 19.4333121,5.31276945 15.4684023,7.62932315 C11.5112415,9.94326222 8.40259726,15.3842873 8.41422077,19.9964778 C8.42842729,24.6008243 11.5577356,26.4062197 15.5148963,24.0922807 M21.1820052,21.9326042 C26.9898877,21.1782862 31.1175266,25.3564496 30.994834,33.1793939 L31,34.8226829 L28.1677371,36.4777376 C28.3098023,35.9012138 28.3085108,35.2423295 28.3072193,34.7507808 C28.2839722,26.5199557 22.6000739,23.242529 15.5239368,27.3775512 C8.44779981,31.5138807 2.80910402,41.4076044 2.83235104,49.6384295 L2.83622555,51.2817185 L0.003962635,52.9367732 L8.81303271e-05,51.2947916 C-0.0218673961,43.5555151 4.06056903,34.5782159 9.86199402,28.5489012 C7.30352943,28.0638891 5.60133038,25.5904582 5.58970687,21.6476106 C5.57291735,15.2261028 9.94594162,7.55742109 15.4593618,4.33620872 C20.9805309,1.10845981 25.3832597,3.64725624 25.4000492,10.068764 C25.4116728,13.8560417 23.7210972,18.3008964 21.1820052,21.9326042" id="Fill-13"></path>
                    </g>
                </g>
                <g id="分组-3" transform="translate(869.000000, 328.000000)">
                    <g id="分组-copy" filter="url(#filter-8)">
                        <path d="M82.9843259,8.41729554 C82.9026108,3.85241987 79.3917941,1.73769964 75.1259015,3.77988561 L12.4195838,33.8613814 C8.23849705,35.8636457 4.92053506,41.1831811 5.00144899,45.7480568 L6.01623225,102.615943 C6.09714618,107.180021 9.56896007,109.235926 13.750848,107.234459 L76.567291,77.1590465 C80.7547868,75.155188 84.0794678,69.8291012 83.9985539,65.2650226 L82.9843259,8.41729554 Z" id="Fill-1" fill="#F7A392"></path>
                        <path d="M77.0439799,3.45861949 C77.33188,3.38568963 77.6125625,3.33495581 77.8876315,3.30166174 C78.0199532,3.28660014 78.1482653,3.28105113 78.2773792,3.27391668 C78.376821,3.26916039 78.4770648,3.25885508 78.5741008,3.25885508 C78.7890234,3.25885508 78.9999363,3.26916039 79.2044336,3.2945273 C79.2188687,3.29690544 79.2325019,3.30007631 79.2477389,3.30166174 C79.4337913,3.32702865 79.6150321,3.36349358 79.7914611,3.40788567 C79.8475976,3.42294727 79.9013283,3.44038702 79.9558609,3.45703406 C80.0913905,3.49666985 80.2237123,3.54264737 80.3528262,3.59417391 C80.4057549,3.61636995 80.4586836,3.63698057 80.5100085,3.66076204 C80.6792199,3.73765549 80.8436197,3.82089066 81,3.91839471 L75.7993533,0.66191778 C75.674249,0.583438905 75.5443331,0.512094474 75.4104074,0.44709177 C75.3775275,0.430444736 75.3430436,0.420139429 75.3101637,0.404285111 C75.2580369,0.38129635 75.2051082,0.35989302 75.1521795,0.338489691 C75.0936371,0.314708214 75.0375006,0.286963157 74.9773543,0.265559828 C74.9051788,0.239400203 74.8289936,0.222753169 74.7552142,0.199764408 C74.7006815,0.18391009 74.6469509,0.165677624 74.5916163,0.152201454 C74.5635481,0.14506701 74.5386876,0.134761704 74.5106194,0.127627261 C74.3598527,0.0927477608 74.2042744,0.0665881359 74.0462902,0.0459775224 C74.0318551,0.0435993747 74.018222,0.0396357952 74.0037869,0.0380503634 C74.002183,0.0380503634 73.9997771,0.0372576475 73.9981732,0.0372576475 C73.8097149,0.0142688863 73.6172469,0.00158543181 73.4207691,0 C73.405532,0 73.3886911,0.00237814771 73.374256,0.00237814771 C73.2764181,0.00237814771 73.1761743,0.0126834545 73.0767325,0.0182324658 C72.9652614,0.024574193 72.8553942,0.0229887612 72.7415173,0.0356722157 C72.7230725,0.0372576475 72.7046276,0.0435993747 72.6869847,0.0459775224 C72.4111139,0.0784788745 72.1304313,0.129212692 71.8433331,0.202142556 C71.8353136,0.203727987 71.8272941,0.204520703 71.8184727,0.206898851 C71.6620924,0.247327362 71.5017024,0.302817475 71.3421143,0.355929441 C71.2587115,0.383674498 71.1769126,0.402699679 71.0927078,0.433615599 C70.8368857,0.527156076 70.5778558,0.634965439 70.3156181,0.759421836 L7.43470653,30.6701783 C7.08666016,30.8350632 6.74663329,31.0316568 6.41222008,31.2401411 C6.32801531,31.293253 6.2446125,31.346365 6.16120968,31.4018551 C5.83962767,31.614303 5.52285736,31.840227 5.2165124,32.0891398 C5.2100968,32.0946888 5.2036812,32.0986524 5.1972656,32.102616 L5.1924539,32.1073723 C4.92139474,32.3293327 4.65835509,32.5671475 4.40173104,32.8144748 C4.37767254,32.8366709 4.35281208,32.8564888 4.32955553,32.8786848 C4.24454881,32.9603346 4.16515575,33.0507042 4.08255488,33.1355248 C3.97509356,33.2457123 3.86763224,33.3535217 3.76418067,33.46688 C3.73851827,33.4946251 3.71125196,33.519992 3.68558956,33.5485298 C3.57973214,33.6658517 3.47948837,33.7895154 3.37683875,33.9115937 C3.31508859,33.9853162 3.25013062,34.0566607 3.18918241,34.1319687 C3.17635121,34.147823 3.16271806,34.1620919 3.14988685,34.1787389 C2.98949682,34.3777106 2.83391849,34.5822313 2.68234991,34.7907156 C2.67593431,34.8002282 2.66951871,34.8097408 2.66230116,34.8192534 C2.63343095,34.8604746 2.6053627,34.904074 2.57649249,34.9445025 C2.47063507,35.0951185 2.36477765,35.2449418 2.26373193,35.3995214 C2.23405978,35.4439135 2.20759542,35.4914765 2.17872522,35.5366613 C2.13060821,35.612762 2.0840951,35.6888627 2.03758199,35.7649634 C1.98625718,35.8474059 1.93252652,35.9290556 1.88280561,36.0122908 C1.82747105,36.1082094 1.77614624,36.2057135 1.72161363,36.3016321 C1.68071417,36.3761474 1.63821081,36.44987 1.59811331,36.5243853 C1.5772626,36.5632284 1.55400605,36.6012787 1.53315534,36.6401218 C1.42569402,36.8446425 1.3246483,37.0507486 1.22681038,37.2584402 C1.22199868,37.2687455 1.21638503,37.2782581 1.21237528,37.2877707 C1.10411201,37.518451 1.00467019,37.7483386 0.910842024,37.9798117 C0.898812771,38.0099349 0.88918937,38.0392654 0.877962067,38.0693886 C0.84027041,38.1637218 0.807390454,38.2588477 0.771302697,38.3547663 C0.725591538,38.4776373 0.675870629,38.6013009 0.63336727,38.7257573 C0.617328267,38.774113 0.605299015,38.8240541 0.589260012,38.8732025 C0.545152754,39.0055861 0.507461096,39.1387623 0.468165539,39.2719386 C0.440097283,39.3702354 0.405613427,39.4677394 0.379149072,39.5660362 C0.367119819,39.6120137 0.361506168,39.658784 0.349476916,39.7047615 C0.292538455,39.9298928 0.244421446,40.1558168 0.201918088,40.3809481 C0.186681035,40.4586343 0.16342448,40.5371132 0.150593278,40.6155921 C0.146583527,40.6385808 0.144979627,40.6615696 0.141771826,40.6861438 C0.10808992,40.8882863 0.0864372655,41.0896362 0.0647846113,41.2917787 C0.0543592593,41.3932464 0.0375183061,41.4962994 0.0294988045,41.5977671 C0.00704420021,41.8997918 -0.00418310194,42.1994384 0.00143054914,42.4967069 L1.01589749,99.0324124 C1.05679695,101.262322 1.91167582,102.894524 3.26697158,103.74273 L8.46761832,107 C7.11152061,106.151001 6.25664175,104.518007 6.21654424,102.288889 L5.2020773,45.7523911 C5.19646365,45.4559154 5.206889,45.155476 5.23014555,44.8534513 C5.23816505,44.7519836 5.25500601,44.6497233 5.26543136,44.5482557 C5.28708401,44.3461131 5.30873667,44.1447633 5.34161662,43.9426207 C5.35845758,43.8403604 5.38251608,43.7381 5.40176289,43.6366324 C5.44506819,43.411501 5.49238325,43.1863697 5.55012366,42.9612384 C5.58621142,42.8161714 5.62711088,42.6718971 5.66881229,42.5284155 C5.70810784,42.396032 5.7457995,42.2628557 5.78990676,42.1296794 C5.84604327,41.9560746 5.90859538,41.7824699 5.9727514,41.6096578 C6.0080372,41.5145319 6.04091716,41.419406 6.07780687,41.3250728 C6.18206039,41.0626838 6.29272951,40.8010876 6.41302203,40.5434549 C6.41622983,40.5363205 6.42023958,40.529186 6.42344738,40.5220516 C6.5405321,40.2715534 6.66724023,40.0250187 6.79876005,39.7800695 C6.83885756,39.7055542 6.88055897,39.6318316 6.92226038,39.5596945 C7.0233061,39.3773698 7.12836157,39.1990087 7.23742679,39.0206477 C7.2839399,38.9445469 7.33045301,38.8692389 7.37857002,38.7939309 C7.50688204,38.5925811 7.64080772,38.3944021 7.77874314,38.1986013 C7.8068114,38.1581728 7.83327575,38.1161588 7.86294791,38.076523 C8.03135744,37.8418791 8.20778647,37.6127842 8.38982916,37.3884456 C8.44997542,37.3131376 8.51493338,37.2417932 8.57668355,37.1680706 C8.70419362,37.0174546 8.83170369,36.8676313 8.96482742,36.7225643 C9.06747704,36.6099986 9.17493836,36.5021892 9.28159773,36.3927944 C9.38745515,36.2849851 9.49331257,36.1747976 9.60157584,36.0701591 C9.85900184,35.8236244 10.1212395,35.5858096 10.3931006,35.3638492 C10.4011201,35.3567147 10.4099416,35.3511657 10.418763,35.3440313 C10.7235041,35.0959112 11.0402744,34.8707799 11.3618564,34.6575393 C11.4452592,34.6028419 11.5286621,34.5489372 11.6128668,34.496618 C11.94728,34.287341 12.2873069,34.0915402 12.6353533,33.9258625 L75.5162648,4.01589877 C75.7777006,3.89144237 76.0367305,3.78363301 76.2925526,3.69088525 C76.3783613,3.65917661 76.4617641,3.638566 76.5467708,3.61082094 C76.7135764,3.55612355 76.881184,3.49984072 77.0439799,3.45861949 Z" id="Fill-3" fill="#FFB6A7"></path>
                    </g>
                </g>
                <g id="分组-3-copy" transform="translate(993.000000, 287.000000)">
                    <g id="分组-copy" filter="url(#filter-9)">
                        <path d="M82.9843259,8.41729554 C82.9026108,3.85241987 79.3917941,1.73769964 75.1259015,3.77988561 L12.4195838,33.8613814 C8.23849705,35.8636457 4.92053506,41.1831811 5.00144899,45.7480568 L6.01623225,102.615943 C6.09714618,107.180021 9.56896007,109.235926 13.750848,107.234459 L76.567291,77.1590465 C80.7547868,75.155188 84.0794678,69.8291012 83.9985539,65.2650226 L82.9843259,8.41729554 Z" id="Fill-1" fill="#F6CA76"></path>
                        <path d="M77.0439799,3.45861949 C77.33188,3.38568963 77.6125625,3.33495581 77.8876315,3.30166174 C78.0199532,3.28660014 78.1482653,3.28105113 78.2773792,3.27391668 C78.376821,3.26916039 78.4770648,3.25885508 78.5741008,3.25885508 C78.7890234,3.25885508 78.9999363,3.26916039 79.2044336,3.2945273 C79.2188687,3.29690544 79.2325019,3.30007631 79.2477389,3.30166174 C79.4337913,3.32702865 79.6150321,3.36349358 79.7914611,3.40788567 C79.8475976,3.42294727 79.9013283,3.44038702 79.9558609,3.45703406 C80.0913905,3.49666985 80.2237123,3.54264737 80.3528262,3.59417391 C80.4057549,3.61636995 80.4586836,3.63698057 80.5100085,3.66076204 C80.6792199,3.73765549 80.8436197,3.82089066 81,3.91839471 L75.7993533,0.66191778 C75.674249,0.583438905 75.5443331,0.512094474 75.4104074,0.44709177 C75.3775275,0.430444736 75.3430436,0.420139429 75.3101637,0.404285111 C75.2580369,0.38129635 75.2051082,0.35989302 75.1521795,0.338489691 C75.0936371,0.314708214 75.0375006,0.286963157 74.9773543,0.265559828 C74.9051788,0.239400203 74.8289936,0.222753169 74.7552142,0.199764408 C74.7006815,0.18391009 74.6469509,0.165677624 74.5916163,0.152201454 C74.5635481,0.14506701 74.5386876,0.134761704 74.5106194,0.127627261 C74.3598527,0.0927477608 74.2042744,0.0665881359 74.0462902,0.0459775224 C74.0318551,0.0435993747 74.018222,0.0396357952 74.0037869,0.0380503634 C74.002183,0.0380503634 73.9997771,0.0372576475 73.9981732,0.0372576475 C73.8097149,0.0142688863 73.6172469,0.00158543181 73.4207691,0 C73.405532,0 73.3886911,0.00237814771 73.374256,0.00237814771 C73.2764181,0.00237814771 73.1761743,0.0126834545 73.0767325,0.0182324658 C72.9652614,0.024574193 72.8553942,0.0229887612 72.7415173,0.0356722157 C72.7230725,0.0372576475 72.7046276,0.0435993747 72.6869847,0.0459775224 C72.4111139,0.0784788745 72.1304313,0.129212692 71.8433331,0.202142556 C71.8353136,0.203727987 71.8272941,0.204520703 71.8184727,0.206898851 C71.6620924,0.247327362 71.5017024,0.302817475 71.3421143,0.355929441 C71.2587115,0.383674498 71.1769126,0.402699679 71.0927078,0.433615599 C70.8368857,0.527156076 70.5778558,0.634965439 70.3156181,0.759421836 L7.43470653,30.6701783 C7.08666016,30.8350632 6.74663329,31.0316568 6.41222008,31.2401411 C6.32801531,31.293253 6.2446125,31.346365 6.16120968,31.4018551 C5.83962767,31.614303 5.52285736,31.840227 5.2165124,32.0891398 C5.2100968,32.0946888 5.2036812,32.0986524 5.1972656,32.102616 L5.1924539,32.1073723 C4.92139474,32.3293327 4.65835509,32.5671475 4.40173104,32.8144748 C4.37767254,32.8366709 4.35281208,32.8564888 4.32955553,32.8786848 C4.24454881,32.9603346 4.16515575,33.0507042 4.08255488,33.1355248 C3.97509356,33.2457123 3.86763224,33.3535217 3.76418067,33.46688 C3.73851827,33.4946251 3.71125196,33.519992 3.68558956,33.5485298 C3.57973214,33.6658517 3.47948837,33.7895154 3.37683875,33.9115937 C3.31508859,33.9853162 3.25013062,34.0566607 3.18918241,34.1319687 C3.17635121,34.147823 3.16271806,34.1620919 3.14988685,34.1787389 C2.98949682,34.3777106 2.83391849,34.5822313 2.68234991,34.7907156 C2.67593431,34.8002282 2.66951871,34.8097408 2.66230116,34.8192534 C2.63343095,34.8604746 2.6053627,34.904074 2.57649249,34.9445025 C2.47063507,35.0951185 2.36477765,35.2449418 2.26373193,35.3995214 C2.23405978,35.4439135 2.20759542,35.4914765 2.17872522,35.5366613 C2.13060821,35.612762 2.0840951,35.6888627 2.03758199,35.7649634 C1.98625718,35.8474059 1.93252652,35.9290556 1.88280561,36.0122908 C1.82747105,36.1082094 1.77614624,36.2057135 1.72161363,36.3016321 C1.68071417,36.3761474 1.63821081,36.44987 1.59811331,36.5243853 C1.5772626,36.5632284 1.55400605,36.6012787 1.53315534,36.6401218 C1.42569402,36.8446425 1.3246483,37.0507486 1.22681038,37.2584402 C1.22199868,37.2687455 1.21638503,37.2782581 1.21237528,37.2877707 C1.10411201,37.518451 1.00467019,37.7483386 0.910842024,37.9798117 C0.898812771,38.0099349 0.88918937,38.0392654 0.877962067,38.0693886 C0.84027041,38.1637218 0.807390454,38.2588477 0.771302697,38.3547663 C0.725591538,38.4776373 0.675870629,38.6013009 0.63336727,38.7257573 C0.617328267,38.774113 0.605299015,38.8240541 0.589260012,38.8732025 C0.545152754,39.0055861 0.507461096,39.1387623 0.468165539,39.2719386 C0.440097283,39.3702354 0.405613427,39.4677394 0.379149072,39.5660362 C0.367119819,39.6120137 0.361506168,39.658784 0.349476916,39.7047615 C0.292538455,39.9298928 0.244421446,40.1558168 0.201918088,40.3809481 C0.186681035,40.4586343 0.16342448,40.5371132 0.150593278,40.6155921 C0.146583527,40.6385808 0.144979627,40.6615696 0.141771826,40.6861438 C0.10808992,40.8882863 0.0864372655,41.0896362 0.0647846113,41.2917787 C0.0543592593,41.3932464 0.0375183061,41.4962994 0.0294988045,41.5977671 C0.00704420021,41.8997918 -0.00418310194,42.1994384 0.00143054914,42.4967069 L1.01589749,99.0324124 C1.05679695,101.262322 1.91167582,102.894524 3.26697158,103.74273 L8.46761832,107 C7.11152061,106.151001 6.25664175,104.518007 6.21654424,102.288889 L5.2020773,45.7523911 C5.19646365,45.4559154 5.206889,45.155476 5.23014555,44.8534513 C5.23816505,44.7519836 5.25500601,44.6497233 5.26543136,44.5482557 C5.28708401,44.3461131 5.30873667,44.1447633 5.34161662,43.9426207 C5.35845758,43.8403604 5.38251608,43.7381 5.40176289,43.6366324 C5.44506819,43.411501 5.49238325,43.1863697 5.55012366,42.9612384 C5.58621142,42.8161714 5.62711088,42.6718971 5.66881229,42.5284155 C5.70810784,42.396032 5.7457995,42.2628557 5.78990676,42.1296794 C5.84604327,41.9560746 5.90859538,41.7824699 5.9727514,41.6096578 C6.0080372,41.5145319 6.04091716,41.419406 6.07780687,41.3250728 C6.18206039,41.0626838 6.29272951,40.8010876 6.41302203,40.5434549 C6.41622983,40.5363205 6.42023958,40.529186 6.42344738,40.5220516 C6.5405321,40.2715534 6.66724023,40.0250187 6.79876005,39.7800695 C6.83885756,39.7055542 6.88055897,39.6318316 6.92226038,39.5596945 C7.0233061,39.3773698 7.12836157,39.1990087 7.23742679,39.0206477 C7.2839399,38.9445469 7.33045301,38.8692389 7.37857002,38.7939309 C7.50688204,38.5925811 7.64080772,38.3944021 7.77874314,38.1986013 C7.8068114,38.1581728 7.83327575,38.1161588 7.86294791,38.076523 C8.03135744,37.8418791 8.20778647,37.6127842 8.38982916,37.3884456 C8.44997542,37.3131376 8.51493338,37.2417932 8.57668355,37.1680706 C8.70419362,37.0174546 8.83170369,36.8676313 8.96482742,36.7225643 C9.06747704,36.6099986 9.17493836,36.5021892 9.28159773,36.3927944 C9.38745515,36.2849851 9.49331257,36.1747976 9.60157584,36.0701591 C9.85900184,35.8236244 10.1212395,35.5858096 10.3931006,35.3638492 C10.4011201,35.3567147 10.4099416,35.3511657 10.418763,35.3440313 C10.7235041,35.0959112 11.0402744,34.8707799 11.3618564,34.6575393 C11.4452592,34.6028419 11.5286621,34.5489372 11.6128668,34.496618 C11.94728,34.287341 12.2873069,34.0915402 12.6353533,33.9258625 L75.5162648,4.01589877 C75.7777006,3.89144237 76.0367305,3.78363301 76.2925526,3.69088525 C76.3783613,3.65917661 76.4617641,3.638566 76.5467708,3.61082094 C76.7135764,3.55612355 76.881184,3.49984072 77.0439799,3.45861949 Z" id="Fill-3" fill="#FFD990"></path>
                    </g>
                    <g id="分组-27" transform="translate(28.000000, 35.000000)" fill="#FFFFFF">
                        <path d="M30.84433,1.87328054 C31.3248374,1.61181794 31.7990389,1.59755634 32.1004596,1.88635367 C34.0199669,3.729665 34.9885488,6.54751876 34.9998993,10.3090148 C35.0112499,14.0621916 34.0628468,17.9247073 32.1597348,21.8466463 C31.8608365,22.4670258 31.3891573,22.9661816 30.9086499,23.2288327 C30.5946175,23.3975949 30.2780627,23.4689029 30.0031267,23.4059142 C29.310742,23.2383404 29.1455282,22.2792481 29.6462144,21.2583555 C31.1621459,18.1279351 31.9188505,15.054561 31.9087611,11.9906947 C31.8999329,8.91969763 31.1280942,6.68538086 29.5982898,5.20455177 C29.0938201,4.72916522 29.2514669,3.59655677 29.940068,2.6838146 C30.2137428,2.31895542 30.5302976,2.04441969 30.84433,1.87328054" id="Fill-25"></path>
                        <path d="M2.82485844,22.3062115 L2.86402858,36.1053056 C2.8663327,37.1802095 3.55411431,37.5939948 4.44235487,37.0723674 C8.08056977,34.9342815 11.6680939,34.1043666 14.6576973,34.7232862 L18.4330077,35.5110021 C18.6968302,35.534446 18.949132,35.4664586 19.206042,35.3152453 C19.4940578,35.1452768 19.7878338,34.8803605 20.0378315,34.5673841 C20.5147856,33.963703 20.7774559,33.2369414 20.7751518,32.4562587 L20.6979636,4.93543546 C20.6956594,4.15475277 20.430685,3.74331189 19.9525788,3.70228502 C19.6910605,3.68001329 19.4134133,3.75503385 19.1369182,3.91679693 C18.8800082,4.06801025 18.6242502,4.29424412 18.383469,4.58729318 L14.5885736,9.8434211 C11.6001222,13.9871348 8.10015484,17.3056223 4.48037294,19.4331585 C3.56102668,19.973541 2.82255431,21.2676456 2.82485844,22.3062115 M4.45272343,40.3803052 C2.06910512,41.7799075 0.168201196,40.7272753 0.0403222044,38.0429459 L0,23.6929196 C0.115206298,20.8632379 2.08638606,17.5330284 4.47000438,16.1310817 C7.52757954,14.3364493 10.4699484,11.54545 12.9941184,8.04761646 L16.8811789,2.66489135 C17.5839373,1.76698904 18.3592757,1.06718788 19.1369182,0.610031351 C19.8961277,0.163424585 20.6576414,-0.0499151294 21.3534874,0.00986687857 C22.7578522,0.123569913 23.522822,1.37547549 23.5274303,3.2732612 L23.6046185,30.8011176 C23.6103788,32.6989033 22.8546255,34.8346448 21.4548689,36.603489 C20.7578708,37.4791195 19.974468,38.1765763 19.2152585,38.6231831 C18.4364639,39.0803396 17.6887751,39.2760964 16.9837125,39.202248 L16.9030681,39.1846651 L13.0793711,38.389916 C10.5494407,37.8600833 7.50799447,38.5856728 4.45272343,40.3803052" id="Fill-27"></path>
                    </g>
                </g>
                <g id="分组-3" transform="translate(953.000000, 166.000000)">
                    <g id="分组-copy" filter="url(#filter-10)">
                        <path d="M82.9843259,8.41729554 C82.9026108,3.85241987 79.3917941,1.73769964 75.1259015,3.77988561 L12.4195838,33.8613814 C8.23849705,35.8636457 4.92053506,41.1831811 5.00144899,45.7480568 L6.01623225,102.615943 C6.09714618,107.180021 9.56896007,109.235926 13.750848,107.234459 L76.567291,77.1590465 C80.7547868,75.155188 84.0794678,69.8291012 83.9985539,65.2650226 L82.9843259,8.41729554 Z" id="Fill-1" fill="#54C4C5"></path>
                        <path d="M77.0439799,3.45861949 C77.33188,3.38568963 77.6125625,3.33495581 77.8876315,3.30166174 C78.0199532,3.28660014 78.1482653,3.28105113 78.2773792,3.27391668 C78.376821,3.26916039 78.4770648,3.25885508 78.5741008,3.25885508 C78.7890234,3.25885508 78.9999363,3.26916039 79.2044336,3.2945273 C79.2188687,3.29690544 79.2325019,3.30007631 79.2477389,3.30166174 C79.4337913,3.32702865 79.6150321,3.36349358 79.7914611,3.40788567 C79.8475976,3.42294727 79.9013283,3.44038702 79.9558609,3.45703406 C80.0913905,3.49666985 80.2237123,3.54264737 80.3528262,3.59417391 C80.4057549,3.61636995 80.4586836,3.63698057 80.5100085,3.66076204 C80.6792199,3.73765549 80.8436197,3.82089066 81,3.91839471 L75.7993533,0.66191778 C75.674249,0.583438905 75.5443331,0.512094474 75.4104074,0.44709177 C75.3775275,0.430444736 75.3430436,0.420139429 75.3101637,0.404285111 C75.2580369,0.38129635 75.2051082,0.35989302 75.1521795,0.338489691 C75.0936371,0.314708214 75.0375006,0.286963157 74.9773543,0.265559828 C74.9051788,0.239400203 74.8289936,0.222753169 74.7552142,0.199764408 C74.7006815,0.18391009 74.6469509,0.165677624 74.5916163,0.152201454 C74.5635481,0.14506701 74.5386876,0.134761704 74.5106194,0.127627261 C74.3598527,0.0927477608 74.2042744,0.0665881359 74.0462902,0.0459775224 C74.0318551,0.0435993747 74.018222,0.0396357952 74.0037869,0.0380503634 C74.002183,0.0380503634 73.9997771,0.0372576475 73.9981732,0.0372576475 C73.8097149,0.0142688863 73.6172469,0.00158543181 73.4207691,0 C73.405532,0 73.3886911,0.00237814771 73.374256,0.00237814771 C73.2764181,0.00237814771 73.1761743,0.0126834545 73.0767325,0.0182324658 C72.9652614,0.024574193 72.8553942,0.0229887612 72.7415173,0.0356722157 C72.7230725,0.0372576475 72.7046276,0.0435993747 72.6869847,0.0459775224 C72.4111139,0.0784788745 72.1304313,0.129212692 71.8433331,0.202142556 C71.8353136,0.203727987 71.8272941,0.204520703 71.8184727,0.206898851 C71.6620924,0.247327362 71.5017024,0.302817475 71.3421143,0.355929441 C71.2587115,0.383674498 71.1769126,0.402699679 71.0927078,0.433615599 C70.8368857,0.527156076 70.5778558,0.634965439 70.3156181,0.759421836 L7.43470653,30.6701783 C7.08666016,30.8350632 6.74663329,31.0316568 6.41222008,31.2401411 C6.32801531,31.293253 6.2446125,31.346365 6.16120968,31.4018551 C5.83962767,31.614303 5.52285736,31.840227 5.2165124,32.0891398 C5.2100968,32.0946888 5.2036812,32.0986524 5.1972656,32.102616 L5.1924539,32.1073723 C4.92139474,32.3293327 4.65835509,32.5671475 4.40173104,32.8144748 C4.37767254,32.8366709 4.35281208,32.8564888 4.32955553,32.8786848 C4.24454881,32.9603346 4.16515575,33.0507042 4.08255488,33.1355248 C3.97509356,33.2457123 3.86763224,33.3535217 3.76418067,33.46688 C3.73851827,33.4946251 3.71125196,33.519992 3.68558956,33.5485298 C3.57973214,33.6658517 3.47948837,33.7895154 3.37683875,33.9115937 C3.31508859,33.9853162 3.25013062,34.0566607 3.18918241,34.1319687 C3.17635121,34.147823 3.16271806,34.1620919 3.14988685,34.1787389 C2.98949682,34.3777106 2.83391849,34.5822313 2.68234991,34.7907156 C2.67593431,34.8002282 2.66951871,34.8097408 2.66230116,34.8192534 C2.63343095,34.8604746 2.6053627,34.904074 2.57649249,34.9445025 C2.47063507,35.0951185 2.36477765,35.2449418 2.26373193,35.3995214 C2.23405978,35.4439135 2.20759542,35.4914765 2.17872522,35.5366613 C2.13060821,35.612762 2.0840951,35.6888627 2.03758199,35.7649634 C1.98625718,35.8474059 1.93252652,35.9290556 1.88280561,36.0122908 C1.82747105,36.1082094 1.77614624,36.2057135 1.72161363,36.3016321 C1.68071417,36.3761474 1.63821081,36.44987 1.59811331,36.5243853 C1.5772626,36.5632284 1.55400605,36.6012787 1.53315534,36.6401218 C1.42569402,36.8446425 1.3246483,37.0507486 1.22681038,37.2584402 C1.22199868,37.2687455 1.21638503,37.2782581 1.21237528,37.2877707 C1.10411201,37.518451 1.00467019,37.7483386 0.910842024,37.9798117 C0.898812771,38.0099349 0.88918937,38.0392654 0.877962067,38.0693886 C0.84027041,38.1637218 0.807390454,38.2588477 0.771302697,38.3547663 C0.725591538,38.4776373 0.675870629,38.6013009 0.63336727,38.7257573 C0.617328267,38.774113 0.605299015,38.8240541 0.589260012,38.8732025 C0.545152754,39.0055861 0.507461096,39.1387623 0.468165539,39.2719386 C0.440097283,39.3702354 0.405613427,39.4677394 0.379149072,39.5660362 C0.367119819,39.6120137 0.361506168,39.658784 0.349476916,39.7047615 C0.292538455,39.9298928 0.244421446,40.1558168 0.201918088,40.3809481 C0.186681035,40.4586343 0.16342448,40.5371132 0.150593278,40.6155921 C0.146583527,40.6385808 0.144979627,40.6615696 0.141771826,40.6861438 C0.10808992,40.8882863 0.0864372655,41.0896362 0.0647846113,41.2917787 C0.0543592593,41.3932464 0.0375183061,41.4962994 0.0294988045,41.5977671 C0.00704420021,41.8997918 -0.00418310194,42.1994384 0.00143054914,42.4967069 L1.01589749,99.0324124 C1.05679695,101.262322 1.91167582,102.894524 3.26697158,103.74273 L8.46761832,107 C7.11152061,106.151001 6.25664175,104.518007 6.21654424,102.288889 L5.2020773,45.7523911 C5.19646365,45.4559154 5.206889,45.155476 5.23014555,44.8534513 C5.23816505,44.7519836 5.25500601,44.6497233 5.26543136,44.5482557 C5.28708401,44.3461131 5.30873667,44.1447633 5.34161662,43.9426207 C5.35845758,43.8403604 5.38251608,43.7381 5.40176289,43.6366324 C5.44506819,43.411501 5.49238325,43.1863697 5.55012366,42.9612384 C5.58621142,42.8161714 5.62711088,42.6718971 5.66881229,42.5284155 C5.70810784,42.396032 5.7457995,42.2628557 5.78990676,42.1296794 C5.84604327,41.9560746 5.90859538,41.7824699 5.9727514,41.6096578 C6.0080372,41.5145319 6.04091716,41.419406 6.07780687,41.3250728 C6.18206039,41.0626838 6.29272951,40.8010876 6.41302203,40.5434549 C6.41622983,40.5363205 6.42023958,40.529186 6.42344738,40.5220516 C6.5405321,40.2715534 6.66724023,40.0250187 6.79876005,39.7800695 C6.83885756,39.7055542 6.88055897,39.6318316 6.92226038,39.5596945 C7.0233061,39.3773698 7.12836157,39.1990087 7.23742679,39.0206477 C7.2839399,38.9445469 7.33045301,38.8692389 7.37857002,38.7939309 C7.50688204,38.5925811 7.64080772,38.3944021 7.77874314,38.1986013 C7.8068114,38.1581728 7.83327575,38.1161588 7.86294791,38.076523 C8.03135744,37.8418791 8.20778647,37.6127842 8.38982916,37.3884456 C8.44997542,37.3131376 8.51493338,37.2417932 8.57668355,37.1680706 C8.70419362,37.0174546 8.83170369,36.8676313 8.96482742,36.7225643 C9.06747704,36.6099986 9.17493836,36.5021892 9.28159773,36.3927944 C9.38745515,36.2849851 9.49331257,36.1747976 9.60157584,36.0701591 C9.85900184,35.8236244 10.1212395,35.5858096 10.3931006,35.3638492 C10.4011201,35.3567147 10.4099416,35.3511657 10.418763,35.3440313 C10.7235041,35.0959112 11.0402744,34.8707799 11.3618564,34.6575393 C11.4452592,34.6028419 11.5286621,34.5489372 11.6128668,34.496618 C11.94728,34.287341 12.2873069,34.0915402 12.6353533,33.9258625 L75.5162648,4.01589877 C75.7777006,3.89144237 76.0367305,3.78363301 76.2925526,3.69088525 C76.3783613,3.65917661 76.4617641,3.638566 76.5467708,3.61082094 C76.7135764,3.55612355 76.881184,3.49984072 77.0439799,3.45861949 Z" id="Fill-3" fill="#7DE1E2"></path>
                    </g>
                    <path d="M47.1555071,76.7010883 C48.0691128,76.1648083 48.8025891,74.859026 48.7999973,73.8035954 C48.7974056,72.7363061 48.0574497,72.2948963 47.1451399,72.8311763 L43.9261377,74.7206736 C43.0138279,75.2569536 42.2790557,76.5640536 42.2816475,77.6300253 C42.2842393,78.6854558 43.0241951,79.125548 43.9378008,78.5905857 L47.1555071,76.7010883 M62.2176901,53.5000632 L62.2047312,48.8184842 C62.2008435,47.4112435 61.2224431,46.8578342 60.018557,47.5640899 L59.9343238,47.6128426 C58.7317336,48.3190983 57.7585168,50.020173 57.7624045,51.4260961 L57.7753634,56.107675 C57.7792511,57.503057 58.7589474,58.0696426 59.9615376,57.363387 L60.0457708,57.3146343 C61.2496569,56.607061 62.2215778,54.8941275 62.2176901,53.5000632 M33.22464,65.8318666 C33.2207524,64.4246258 32.241056,63.8698989 31.0371699,64.5774722 L30.9542327,64.6249073 C29.7503466,65.3324806 28.7771297,67.0322376 28.7810174,68.4394784 L28.7952723,73.1210573 C28.7978641,74.5164393 29.7775604,75.0817073 30.9814465,74.3754517 L31.0643837,74.3266989 C32.2682698,73.6204433 33.2414867,71.9075098 33.237599,70.5134455 L33.22464,65.8318666 M62.0142347,43.6230253 C63.8129364,43.5031199 64.9805374,44.8932313 64.9870169,47.1859269 L64.9999759,51.8661882 C65.0077512,54.8018926 63.1364794,58.3661119 60.64577,60.1805037 C58.7770899,64.897659 55.5567918,69.4606502 51.066517,73.8576187 C50.5559345,76.166126 48.9827185,78.4706803 47.1866086,79.5247932 L43.9455761,81.427467 C41.6829442,82.7556493 39.8492533,81.6936305 39.8414779,79.0623012 C39.8349984,76.4177954 41.6557304,73.2001158 43.9183624,71.8706159 L47.1360687,69.9811185 C48.7455698,69.0376874 50.2021553,69.2880393 50.8708369,70.5951393 C53.9291482,67.4894591 56.1762295,64.3956377 57.6444781,61.3110398 C56.0116508,61.2609695 54.9995572,59.8879874 54.9930777,57.7402324 L54.9801187,53.0599711 C54.9723434,50.1730193 56.7827081,46.6694116 59.2202859,44.8260316 C59.0427483,40.7993203 57.9840024,37.958486 56.0790374,36.5986804 C53.7865998,34.9687583 50.2526952,35.3666859 45.4267837,38.1996144 C40.5995763,41.0338604 37.0851101,44.773326 34.799152,49.1030947 C32.917513,52.685761 31.8782055,56.7454133 31.7136269,60.9724061 C34.1641636,59.9235637 35.9978545,61.3004987 36.0056299,64.1993092 L36.0185888,68.8795705 C36.028956,72.0814385 33.8142721,75.9803386 31.073455,77.5891784 C28.2509965,79.2467709 26.0220578,77.9554826 26.0129865,74.7536147 L26.0000276,70.0733534 C25.9935481,67.7925166 27.1287518,65.0478701 28.9119028,63.0661378 C29.0220538,57.9115257 30.2764798,52.803031 32.7179452,48.1504402 C35.561138,42.7639232 39.8324067,38.2286025 45.4164165,34.9503113 C51.0017223,31.6720202 55.2833581,31.1739518 58.1382139,33.2162956 C60.6172603,34.9792994 61.8963083,38.6146713 62.0142347,43.6230253" id="Fill-9" fill="#FFFFFF"></path>
                </g>
                <g id="分组-26" transform="translate(897.000000, 361.000000)" fill="#FFFFFF">
                    <g id="分组-23">
                        <path d="M27.4038255,19.2365791 L29.4742233,9.0299852 L32.9626507,7.20689655 L33,18.7895339 L30.7428555,19.967391 L30.717956,12.1356544 L30.7229359,11.183009 L30.7279158,10.2359938 L28.5566748,21.1092143 L26.1949522,22.3422483 L23.9863618,13.7560526 L23.9975666,14.6940593 C23.9988116,15.0983143 24.0000566,15.420367 24.0013016,15.6444526 L24.0262011,23.4761892 L21.7678117,24.6551724 L21.7317073,13.071409 L25.2612189,11.2291774 L27.4038255,19.2365791 Z" id="Fill-15"></path>
                        <path d="M29.2092035,6.03649377 C26.4858865,3.0029842 21.7918868,2.5907923 16.4777258,5.50621446 C11.1565308,8.42720679 6.48714994,13.976201 3.79079645,19.9830624 L0.804878049,21.6206897 C3.76500525,13.8492013 9.66533007,6.42863309 16.4695195,2.69551132 C23.2737089,-1.03761044 29.1986526,-0.106279558 32.195122,4.39775246 L29.2092035,6.03649377 Z" id="Fill-19"></path>
                        <path d="M5.03908273,34.5024571 C3.48079797,35.3609402 2.24548599,35.5049584 1.34611286,34.9333864 C0.513927502,34.3955687 0.0683665026,33.3053063 0.00235746561,31.6569737 L0,30.8389957 C0.0601153729,28.9881376 0.558719348,27.2880484 1.50759925,25.7499797 C2.38575519,24.3064229 3.51262375,23.2139103 4.88231127,22.4589402 C6.71170458,21.4508132 8.04485138,21.3518008 8.89943266,22.1630279 C9.36856832,22.624336 9.61845967,23.2060343 9.65853659,23.902497 L7.36354382,25.1682815 C7.21148729,24.6979722 7.0287837,24.3761817 6.79539461,24.2242876 C6.38755306,23.9441273 5.77696947,24.0330135 4.97189496,24.4774444 C4.15856933,24.9241257 3.51262375,25.6363404 3.04113063,26.6073377 C2.56845878,27.5794601 2.33742715,28.7068521 2.34214208,30.0018903 C2.34567828,31.2980535 2.59674836,32.1351589 3.09653107,32.5132066 C3.5538794,32.8755022 4.23400823,32.8541245 4.95303524,32.4580746 C4.9695375,32.4490735 4.98603976,32.4400724 5.00254201,32.4299461 C5.79347173,31.9945162 6.38637433,31.3858146 6.79893081,30.6049662 C7.03114117,30.1796626 7.21855968,29.6305935 7.36708002,28.952133 L9.64674926,27.6953497 C9.45579454,29.0590215 8.95365437,30.3596853 8.15093733,31.5962161 C7.3411479,32.8372474 6.30386303,33.8059944 5.03908273,34.5024571" id="Fill-21"></path>
                        <path d="M16.5222726,38.4940456 C21.8360367,35.5785764 26.5121022,30.0239224 29.2082543,24.0180781 L32.195122,22.3793103 C29.2340436,30.1520382 23.3341595,37.5727262 16.5304782,41.3047941 C9.72796926,45.0379762 3.80229584,44.1055162 0.804878049,39.6025255 L3.79174568,37.9637578 C6.5148593,40.9973163 11.2085084,41.4095149 16.5222726,38.4940456" id="Fill-23"></path>
                    </g>
                    <path d="M17.2771715,21.0626396 C17.7101856,20.6133086 17.9255223,20.0616546 17.9231817,19.4243607 C17.9220114,18.7303444 17.7113559,18.3811118 17.2923855,18.365541 C17.0594942,18.3622043 16.7084017,18.490108 16.2379378,18.7481397 L13.7194346,20.1294991 L13.728797,23.1980745 L16.1864443,21.848969 C16.6721222,21.5820397 17.0384287,21.324008 17.2771715,21.0626396 M19.9840944,25.2167277 C20.0297365,25.4691984 20.1877281,25.6204583 20.4042351,25.6393658 L20.4054054,25.9252027 L17.8950943,27.3021133 C17.7359324,26.8672409 17.6528405,26.3734216 17.643478,25.8395628 L17.6247531,24.7863041 C17.6153906,24.0644826 17.4948489,23.6396201 17.2619575,23.5228385 C17.0302365,23.4049447 16.5960522,23.5206141 15.9605748,23.8687345 L13.7346486,25.0899362 L13.747522,29.577686 L11.5215957,30.8 L11.4864865,19.360965 L16.7025502,16.4981477 C17.4492069,16.1055391 18.0249985,15.8953322 18.421733,15.8497318 C18.8184675,15.8108046 19.1707302,15.888659 19.4551151,16.083295 C19.6809846,16.2545747 19.8682339,16.4692303 20.0039897,16.7472818 C20.1467673,17.0531383 20.2158155,17.4235028 20.2087936,17.8428043 C20.2029421,18.4100292 20.0706973,19.0317521 19.8179107,19.6601483 C19.5581023,20.3341449 19.1262585,20.9391848 18.528231,21.4875022 C19.0302933,21.4252187 19.3895779,21.529766 19.599063,21.8067052 C19.8097185,22.075859 19.9162166,22.6141665 19.9185572,23.4216278 L19.9208978,24.1890497 C19.913876,24.5438433 19.9314306,24.8941881 19.9840944,25.2167277" id="Fill-17"></path>
                </g>
                <g id="智能名片" transform="translate(754.000000, 45.000000)"></g>
            </g>
        </g>
    </g>
</svg>